ISO-10303-21;
HEADER;
FILE_DESCRIPTION(('Open CASCADE Model'),'2;1');
FILE_NAME('Open CASCADE Shape Model','2026-08-24T20:15:29',('Author'),(
    'Open CASCADE'),'Open CASCADE STEP processor 7.7','Open CASCADE 7.7'
  ,'Unknown');
FILE_SCHEMA(('CONFIG_CONTROL_DESIGN'));
ENDSEC;
DATA;
#1 = APPLICATION_PROTOCOL_DEFINITION('international standard',
  'config_control_design',1994,#2);
#2 = APPLICATION_CONTEXT(
'configuration controlled 3D designs of mechanical parts and assemblies'
  );
#3 = SHAPE_DEFINITION_REPRESENTATION(#4,#10);
#4 = PRODUCT_DEFINITION_SHAPE('','',#5);
#5 = PRODUCT_DEFINITION('design','',#6,#9);
#6 = PRODUCT_DEFINITION_FORMATION_WITH_SPECIFIED_SOURCE('','',#7,
  .NOT_KNOWN.);
#7 = PRODUCT('Open CASCADE STEP translator 7.7 361',
  'Open CASCADE STEP translator 7.7 361','',(#8));
#8 = MECHANICAL_CONTEXT('',#2,'mechanical');
#9 = DESIGN_CONTEXT('',#2,'design');
#10 = SHAPE_REPRESENTATION('',(#11,#15,#19,#23,#27,#31),#35);
#11 = AXIS2_PLACEMENT_3D('',#12,#13,#14);
#12 = CARTESIAN_POINT('',(0.,0.,0.));
#13 = DIRECTION('',(0.,0.,1.));
#14 = DIRECTION('',(1.,0.,-0.));
#15 = AXIS2_PLACEMENT_3D('',#16,#17,#18);
#16 = CARTESIAN_POINT('',(0.,0.,0.));
#17 = DIRECTION('',(0.,0.,1.));
#18 = DIRECTION('',(1.,0.,-0.));
#19 = AXIS2_PLACEMENT_3D('',#20,#21,#22);
#20 = CARTESIAN_POINT('',(0.,0.,0.));
#21 = DIRECTION('',(0.,0.,1.));
#22 = DIRECTION('',(1.,0.,-0.));
#23 = AXIS2_PLACEMENT_3D('',#24,#25,#26);
#24 = CARTESIAN_POINT('',(0.,0.,0.));
#25 = DIRECTION('',(0.,0.,1.));
#26 = DIRECTION('',(1.,0.,-0.));
#27 = AXIS2_PLACEMENT_3D('',#28,#29,#30);
#28 = CARTESIAN_POINT('',(0.,0.,0.));
#29 = DIRECTION('',(0.,0.,1.));
#30 = DIRECTION('',(1.,0.,-0.));
#31 = AXIS2_PLACEMENT_3D('',#32,#33,#34);
#32 = CARTESIAN_POINT('',(0.,0.,0.));
#33 = DIRECTION('',(0.,0.,1.));
#34 = DIRECTION('',(1.,0.,-0.));
#35 = ( GEOMETRIC_REPRESENTATION_CONTEXT(3) 
GLOBAL_UNCERTAINTY_ASSIGNED_CONTEXT((#39)) GLOBAL_UNIT_ASSIGNED_CONTEXT(
(#36,#37,#38)) REPRESENTATION_CONTEXT('Context #1',
  '3D Context with UNIT and UNCERTAINTY') );
#36 = ( LENGTH_UNIT() NAMED_UNIT(*) SI_UNIT(.MILLI.,.METRE.) );
#37 = ( NAMED_UNIT(*) PLANE_ANGLE_UNIT() SI_UNIT($,.RADIAN.) );
#38 = ( NAMED_UNIT(*) SI_UNIT($,.STERADIAN.) SOLID_ANGLE_UNIT() );
#39 = UNCERTAINTY_MEASURE_WITH_UNIT(LENGTH_MEASURE(1.E-07),#36,
  'distance_accuracy_value','confusion accuracy');
#40 = PRODUCT_RELATED_PRODUCT_CATEGORY('detail',$,(#7));
#41 = PRODUCT_CATEGORY_RELATIONSHIP('','',#42,#40);
#42 = PRODUCT_CATEGORY('part',$);
#43 = CC_DESIGN_PERSON_AND_ORGANIZATION_ASSIGNMENT(#44,#47,(#6,#5));
#44 = PERSON_AND_ORGANIZATION(#45,#46);
#45 = PERSON('IP127.0.0,root','','root',$,$,$);
#46 = ORGANIZATION('IP127.0.0','Unspecified','');
#47 = PERSON_AND_ORGANIZATION_ROLE('creator');
#48 = CC_DESIGN_PERSON_AND_ORGANIZATION_ASSIGNMENT(#44,#49,(#7));
#49 = PERSON_AND_ORGANIZATION_ROLE('design_owner');
#50 = CC_DESIGN_PERSON_AND_ORGANIZATION_ASSIGNMENT(#44,#51,(#6));
#51 = PERSON_AND_ORGANIZATION_ROLE('design_supplier');
#52 = CC_DESIGN_PERSON_AND_ORGANIZATION_ASSIGNMENT(#44,#53,(#54));
#53 = PERSON_AND_ORGANIZATION_ROLE('classification_officer');
#54 = SECURITY_CLASSIFICATION('','',#55);
#55 = SECURITY_CLASSIFICATION_LEVEL('unclassified');
#56 = CC_DESIGN_SECURITY_CLASSIFICATION(#54,(#6));
#57 = CC_DESIGN_DATE_AND_TIME_ASSIGNMENT(#58,#62,(#5));
#58 = DATE_AND_TIME(#59,#60);
#59 = CALENDAR_DATE(2026,24,8);
#60 = LOCAL_TIME(20,13,$,#61);
#61 = COORDINATED_UNIVERSAL_TIME_OFFSET(8,$,.AHEAD.);
#62 = DATE_TIME_ROLE('creation_date');
#63 = CC_DESIGN_DATE_AND_TIME_ASSIGNMENT(#58,#64,(#54));
#64 = DATE_TIME_ROLE('classification_date');
#65 = CC_DESIGN_APPROVAL(#66,(#6,#5,#54));
#66 = APPROVAL(#67,'');
#67 = APPROVAL_STATUS('not_yet_approved');
#68 = APPROVAL_PERSON_ORGANIZATION(#44,#66,#69);
#69 = APPROVAL_ROLE('approver');
#70 = APPROVAL_DATE_TIME(#58,#66);
#71 = SHAPE_DEFINITION_REPRESENTATION(#72,#78);
#72 = PRODUCT_DEFINITION_SHAPE('','',#73);
#73 = PRODUCT_DEFINITION('design','',#74,#77);
#74 = PRODUCT_DEFINITION_FORMATION_WITH_SPECIFIED_SOURCE('','',#75,
  .NOT_KNOWN.);
#75 = PRODUCT('Open CASCADE STEP translator 7.7 361.1',
  'Open CASCADE STEP translator 7.7 361.1','',(#76));
#76 = MECHANICAL_CONTEXT('',#2,'mechanical');
#77 = DESIGN_CONTEXT('',#2,'design');
#78 = ADVANCED_BREP_SHAPE_REPRESENTATION('',(#11,#79),#653);
#79 = MANIFOLD_SOLID_BREP('',#80);
#80 = CLOSED_SHELL('',(#81,#203,#367,#416,#538,#565,#592,#619,#626));
#81 = ADVANCED_FACE('',(#82),#97,.T.);
#82 = FACE_BOUND('',#83,.T.);
#83 = EDGE_LOOP('',(#84,#120,#148,#177));
#84 = ORIENTED_EDGE('',*,*,#85,.F.);
#85 = EDGE_CURVE('',#86,#88,#90,.T.);
#86 = VERTEX_POINT('',#87);
#87 = CARTESIAN_POINT('',(-0.198059931471,0.,0.583950579093));
#88 = VERTEX_POINT('',#89);
#89 = CARTESIAN_POINT('',(-0.198059931471,0.,0.307407349275));
#90 = SURFACE_CURVE('',#91,(#96,#108),.PCURVE_S1.);
#91 = CIRCLE('',#92,0.493827298284);
#92 = AXIS2_PLACEMENT_3D('',#93,#94,#95);
#93 = CARTESIAN_POINT('',(0.276014283226,0.,0.445678964184));
#94 = DIRECTION('',(0.,-1.,-0.));
#95 = DIRECTION('',(-0.960000016898,-0.,0.279999942064));
#96 = PCURVE('',#97,#102);
#97 = CYLINDRICAL_SURFACE('',#98,0.493827298284);
#98 = AXIS2_PLACEMENT_3D('',#99,#100,#101);
#99 = CARTESIAN_POINT('',(0.276014283226,-1.5873015E-02,0.445678964184)
  );
#100 = DIRECTION('',(0.,-1.,-0.));
#101 = DIRECTION('',(-0.960000016898,-0.,0.279999942064));
#102 = DEFINITIONAL_REPRESENTATION('',(#103),#107);
#103 = LINE('',#104,#105);
#104 = CARTESIAN_POINT('',(0.,-1.5873015E-02));
#105 = VECTOR('',#106,1.);
#106 = DIRECTION('',(1.,0.));
#107 = ( GEOMETRIC_REPRESENTATION_CONTEXT(2) 
PARAMETRIC_REPRESENTATION_CONTEXT() REPRESENTATION_CONTEXT('2D SPACE',''
  ) );
#108 = PCURVE('',#109,#114);
#109 = PLANE('',#110);
#110 = AXIS2_PLACEMENT_3D('',#111,#112,#113);
#111 = CARTESIAN_POINT('',(-1.5873015E-02,0.,-1.5873015E-02));
#112 = DIRECTION('',(0.,-1.,0.));
#113 = DIRECTION('',(1.,0.,0.));
#114 = DEFINITIONAL_REPRESENTATION('',(#115),#119);
#115 = CIRCLE('',#116,0.493827298284);
#116 = AXIS2_PLACEMENT_2D('',#117,#118);
#117 = CARTESIAN_POINT('',(0.291887298226,0.461551979184));
#118 = DIRECTION('',(-0.960000016898,0.279999942064));
#119 = ( GEOMETRIC_REPRESENTATION_CONTEXT(2) 
PARAMETRIC_REPRESENTATION_CONTEXT() REPRESENTATION_CONTEXT('2D SPACE',''
  ) );
#120 = ORIENTED_EDGE('',*,*,#121,.T.);
#121 = EDGE_CURVE('',#86,#122,#124,.T.);
#122 = VERTEX_POINT('',#123);
#123 = CARTESIAN_POINT('',(-0.198059931471,3.174603E-02,0.583950579093)
  );
#124 = SURFACE_CURVE('',#125,(#129,#136),.PCURVE_S1.);
#125 = LINE('',#126,#127);
#126 = CARTESIAN_POINT('',(-0.198059931471,-1.5873015E-02,0.583950579093
    ));
#127 = VECTOR('',#128,1.);
#128 = DIRECTION('',(-0.,1.,-0.));
#129 = PCURVE('',#97,#130);
#130 = DEFINITIONAL_REPRESENTATION('',(#131),#135);
#131 = LINE('',#132,#133);
#132 = CARTESIAN_POINT('',(0.,0.));
#133 = VECTOR('',#134,1.);
#134 = DIRECTION('',(0.,-1.));
#135 = ( GEOMETRIC_REPRESENTATION_CONTEXT(2) 
PARAMETRIC_REPRESENTATION_CONTEXT() REPRESENTATION_CONTEXT('2D SPACE',''
  ) );
#136 = PCURVE('',#137,#142);
#137 = PLANE('',#138);
#138 = AXIS2_PLACEMENT_3D('',#139,#140,#141);
#139 = CARTESIAN_POINT('',(-4.003524042524E-02,-1.5873015E-02,
    1.038271605895));
#140 = DIRECTION('',(-0.944496805691,0.,0.328520599109));
#141 = DIRECTION('',(-0.328520599109,0.,-0.944496805691));
#142 = DEFINITIONAL_REPRESENTATION('',(#143),#147);
#143 = LINE('',#144,#145);
#144 = CARTESIAN_POINT('',(0.481019124749,0.));
#145 = VECTOR('',#146,1.);
#146 = DIRECTION('',(0.,-1.));
#147 = ( GEOMETRIC_REPRESENTATION_CONTEXT(2) 
PARAMETRIC_REPRESENTATION_CONTEXT() REPRESENTATION_CONTEXT('2D SPACE',''
  ) );
#148 = ORIENTED_EDGE('',*,*,#149,.T.);
#149 = EDGE_CURVE('',#122,#150,#152,.T.);
#150 = VERTEX_POINT('',#151);
#151 = CARTESIAN_POINT('',(-0.198059931471,3.174603E-02,0.307407349275)
  );
#152 = SURFACE_CURVE('',#153,(#158,#165),.PCURVE_S1.);
#153 = CIRCLE('',#154,0.493827298284);
#154 = AXIS2_PLACEMENT_3D('',#155,#156,#157);
#155 = CARTESIAN_POINT('',(0.276014283226,3.174603E-02,0.445678964184));
#156 = DIRECTION('',(0.,-1.,-0.));
#157 = DIRECTION('',(-0.960000016898,-0.,0.279999942064));
#158 = PCURVE('',#97,#159);
#159 = DEFINITIONAL_REPRESENTATION('',(#160),#164);
#160 = LINE('',#161,#162);
#161 = CARTESIAN_POINT('',(0.,-4.7619045E-02));
#162 = VECTOR('',#163,1.);
#163 = DIRECTION('',(1.,0.));
#164 = ( GEOMETRIC_REPRESENTATION_CONTEXT(2) 
PARAMETRIC_REPRESENTATION_CONTEXT() REPRESENTATION_CONTEXT('2D SPACE',''
  ) );
#165 = PCURVE('',#166,#171);
#166 = PLANE('',#167);
#167 = AXIS2_PLACEMENT_3D('',#168,#169,#170);
#168 = CARTESIAN_POINT('',(-1.5873015E-02,3.174603E-02,-1.5873015E-02));
#169 = DIRECTION('',(0.,-1.,0.));
#170 = DIRECTION('',(1.,0.,0.));
#171 = DEFINITIONAL_REPRESENTATION('',(#172),#176);
#172 = CIRCLE('',#173,0.493827298284);
#173 = AXIS2_PLACEMENT_2D('',#174,#175);
#174 = CARTESIAN_POINT('',(0.291887298226,0.461551979184));
#175 = DIRECTION('',(-0.960000016898,0.279999942064));
#176 = ( GEOMETRIC_REPRESENTATION_CONTEXT(2) 
PARAMETRIC_REPRESENTATION_CONTEXT() REPRESENTATION_CONTEXT('2D SPACE',''
  ) );
#177 = ORIENTED_EDGE('',*,*,#178,.F.);
#178 = EDGE_CURVE('',#88,#150,#179,.T.);
#179 = SURFACE_CURVE('',#180,(#184,#191),.PCURVE_S1.);
#180 = LINE('',#181,#182);
#181 = CARTESIAN_POINT('',(-0.198059931471,-1.5873015E-02,0.307407349275
    ));
#182 = VECTOR('',#183,1.);
#183 = DIRECTION('',(-0.,1.,-0.));
#184 = PCURVE('',#97,#185);
#185 = DEFINITIONAL_REPRESENTATION('',(#186),#190);
#186 = LINE('',#187,#188);
#187 = CARTESIAN_POINT('',(0.567588097717,0.));
#188 = VECTOR('',#189,1.);
#189 = DIRECTION('',(0.,-1.));
#190 = ( GEOMETRIC_REPRESENTATION_CONTEXT(2) 
PARAMETRIC_REPRESENTATION_CONTEXT() REPRESENTATION_CONTEXT('2D SPACE',''
  ) );
#191 = PCURVE('',#192,#197);
#192 = PLANE('',#193);
#193 = AXIS2_PLACEMENT_3D('',#194,#195,#196);
#194 = CARTESIAN_POINT('',(-0.198059931471,-1.5873015E-02,0.307407349275
    ));
#195 = DIRECTION('',(-0.944496799005,-0.,-0.328520618333));
#196 = DIRECTION('',(0.328520618333,0.,-0.944496799005));
#197 = DEFINITIONAL_REPRESENTATION('',(#198),#202);
#198 = LINE('',#199,#200);
#199 = CARTESIAN_POINT('',(-6.154838351042E-17,0.));
#200 = VECTOR('',#201,1.);
#201 = DIRECTION('',(0.,-1.));
#202 = ( GEOMETRIC_REPRESENTATION_CONTEXT(2) 
PARAMETRIC_REPRESENTATION_CONTEXT() REPRESENTATION_CONTEXT('2D SPACE',''
  ) );
#203 = ADVANCED_FACE('',(#204,#336),#109,.T.);
#204 = FACE_BOUND('',#205,.T.);
#205 = EDGE_LOOP('',(#206,#207,#230,#258,#287,#315));
#206 = ORIENTED_EDGE('',*,*,#85,.T.);
#207 = ORIENTED_EDGE('',*,*,#208,.T.);
#208 = EDGE_CURVE('',#88,#209,#211,.T.);
#209 = VERTEX_POINT('',#210);
#210 = CARTESIAN_POINT('',(-4.003524042524E-02,0.,-0.146913647725));
#211 = SURFACE_CURVE('',#212,(#216,#223),.PCURVE_S1.);
#212 = LINE('',#213,#214);
#213 = CARTESIAN_POINT('',(-0.198059931471,0.,0.307407349275));
#214 = VECTOR('',#215,1.);
#215 = DIRECTION('',(0.328520618333,0.,-0.944496799005));
#216 = PCURVE('',#109,#217);
#217 = DEFINITIONAL_REPRESENTATION('',(#218),#222);
#218 = LINE('',#219,#220);
#219 = CARTESIAN_POINT('',(-0.182186916471,0.323280364275));
#220 = VECTOR('',#221,1.);
#221 = DIRECTION('',(0.328520618333,-0.944496799005));
#222 = ( GEOMETRIC_REPRESENTATION_CONTEXT(2) 
PARAMETRIC_REPRESENTATION_CONTEXT() REPRESENTATION_CONTEXT('2D SPACE',''
  ) );
#223 = PCURVE('',#192,#224);
#224 = DEFINITIONAL_REPRESENTATION('',(#225),#229);
#225 = LINE('',#226,#227);
#226 = CARTESIAN_POINT('',(0.,-1.5873015E-02));
#227 = VECTOR('',#228,1.);
#228 = DIRECTION('',(1.,0.));
#229 = ( GEOMETRIC_REPRESENTATION_CONTEXT(2) 
PARAMETRIC_REPRESENTATION_CONTEXT() REPRESENTATION_CONTEXT('2D SPACE',''
  ) );
#230 = ORIENTED_EDGE('',*,*,#231,.T.);
#231 = EDGE_CURVE('',#209,#232,#234,.T.);
#232 = VERTEX_POINT('',#233);
#233 = CARTESIAN_POINT('',(0.117989480422,0.,0.307407349275));
#234 = SURFACE_CURVE('',#235,(#239,#246),.PCURVE_S1.);
#235 = LINE('',#236,#237);
#236 = CARTESIAN_POINT('',(-4.003524042524E-02,0.,-0.146913647725));
#237 = VECTOR('',#238,1.);
#238 = DIRECTION('',(0.328520673603,0.,0.94449677978));
#239 = PCURVE('',#109,#240);
#240 = DEFINITIONAL_REPRESENTATION('',(#241),#245);
#241 = LINE('',#242,#243);
#242 = CARTESIAN_POINT('',(-2.416222542524E-02,-0.131040632725));
#243 = VECTOR('',#244,1.);
#244 = DIRECTION('',(0.328520673603,0.94449677978));
#245 = ( GEOMETRIC_REPRESENTATION_CONTEXT(2) 
PARAMETRIC_REPRESENTATION_CONTEXT() REPRESENTATION_CONTEXT('2D SPACE',''
  ) );
#246 = PCURVE('',#247,#252);
#247 = PLANE('',#248);
#248 = AXIS2_PLACEMENT_3D('',#249,#250,#251);
#249 = CARTESIAN_POINT('',(-4.003524042524E-02,-1.5873015E-02,
    -0.146913647725));
#250 = DIRECTION('',(0.94449677978,0.,-0.328520673603));
#251 = DIRECTION('',(0.328520673603,0.,0.94449677978));
#252 = DEFINITIONAL_REPRESENTATION('',(#253),#257);
#253 = LINE('',#254,#255);
#254 = CARTESIAN_POINT('',(0.,-1.5873015E-02));
#255 = VECTOR('',#256,1.);
#256 = DIRECTION('',(1.,0.));
#257 = ( GEOMETRIC_REPRESENTATION_CONTEXT(2) 
PARAMETRIC_REPRESENTATION_CONTEXT() REPRESENTATION_CONTEXT('2D SPACE',''
  ) );
#258 = ORIENTED_EDGE('',*,*,#259,.T.);
#259 = EDGE_CURVE('',#232,#260,#262,.T.);
#260 = VERTEX_POINT('',#261);
#261 = CARTESIAN_POINT('',(0.117989480422,0.,0.583950579093));
#262 = SURFACE_CURVE('',#263,(#268,#275),.PCURVE_S1.);
#263 = CIRCLE('',#264,0.493827298284);
#264 = AXIS2_PLACEMENT_3D('',#265,#266,#267);
#265 = CARTESIAN_POINT('',(-0.356084734275,0.,0.445678964184));
#266 = DIRECTION('',(0.,-1.,0.));
#267 = DIRECTION('',(0.960000016898,0.,-0.279999942064));
#268 = PCURVE('',#109,#269);
#269 = DEFINITIONAL_REPRESENTATION('',(#270),#274);
#270 = CIRCLE('',#271,0.493827298284);
#271 = AXIS2_PLACEMENT_2D('',#272,#273);
#272 = CARTESIAN_POINT('',(-0.340211719275,0.461551979184));
#273 = DIRECTION('',(0.960000016898,-0.279999942064));
#274 = ( GEOMETRIC_REPRESENTATION_CONTEXT(2) 
PARAMETRIC_REPRESENTATION_CONTEXT() REPRESENTATION_CONTEXT('2D SPACE',''
  ) );
#275 = PCURVE('',#276,#281);
#276 = CYLINDRICAL_SURFACE('',#277,0.493827298284);
#277 = AXIS2_PLACEMENT_3D('',#278,#279,#280);
#278 = CARTESIAN_POINT('',(-0.356084734275,-1.5873015E-02,0.445678964184
    ));
#279 = DIRECTION('',(0.,-1.,0.));
#280 = DIRECTION('',(0.960000016898,0.,-0.279999942064));
#281 = DEFINITIONAL_REPRESENTATION('',(#282),#286);
#282 = LINE('',#283,#284);
#283 = CARTESIAN_POINT('',(0.,-1.5873015E-02));
#284 = VECTOR('',#285,1.);
#285 = DIRECTION('',(1.,0.));
#286 = ( GEOMETRIC_REPRESENTATION_CONTEXT(2) 
PARAMETRIC_REPRESENTATION_CONTEXT() REPRESENTATION_CONTEXT('2D SPACE',''
  ) );
#287 = ORIENTED_EDGE('',*,*,#288,.T.);
#288 = EDGE_CURVE('',#260,#289,#291,.T.);
#289 = VERTEX_POINT('',#290);
#290 = CARTESIAN_POINT('',(-4.003524042524E-02,0.,1.038271605895));
#291 = SURFACE_CURVE('',#292,(#296,#303),.PCURVE_S1.);
#292 = LINE('',#293,#294);
#293 = CARTESIAN_POINT('',(0.117989480422,0.,0.583950579093));
#294 = VECTOR('',#295,1.);
#295 = DIRECTION('',(-0.328520654379,0.,0.944496786467));
#296 = PCURVE('',#109,#297);
#297 = DEFINITIONAL_REPRESENTATION('',(#298),#302);
#298 = LINE('',#299,#300);
#299 = CARTESIAN_POINT('',(0.133862495422,0.599823594093));
#300 = VECTOR('',#301,1.);
#301 = DIRECTION('',(-0.328520654379,0.944496786467));
#302 = ( GEOMETRIC_REPRESENTATION_CONTEXT(2) 
PARAMETRIC_REPRESENTATION_CONTEXT() REPRESENTATION_CONTEXT('2D SPACE',''
  ) );
#303 = PCURVE('',#304,#309);
#304 = PLANE('',#305);
#305 = AXIS2_PLACEMENT_3D('',#306,#307,#308);
#306 = CARTESIAN_POINT('',(0.117989480422,-1.5873015E-02,0.583950579093)
  );
#307 = DIRECTION('',(0.944496786467,0.,0.328520654379));
#308 = DIRECTION('',(-0.328520654379,0.,0.944496786467));
#309 = DEFINITIONAL_REPRESENTATION('',(#310),#314);
#310 = LINE('',#311,#312);
#311 = CARTESIAN_POINT('',(0.,-1.5873015E-02));
#312 = VECTOR('',#313,1.);
#313 = DIRECTION('',(1.,0.));
#314 = ( GEOMETRIC_REPRESENTATION_CONTEXT(2) 
PARAMETRIC_REPRESENTATION_CONTEXT() REPRESENTATION_CONTEXT('2D SPACE',''
  ) );
#315 = ORIENTED_EDGE('',*,*,#316,.T.);
#316 = EDGE_CURVE('',#289,#86,#317,.T.);
#317 = SURFACE_CURVE('',#318,(#322,#329),.PCURVE_S1.);
#318 = LINE('',#319,#320);
#319 = CARTESIAN_POINT('',(-4.003524042524E-02,0.,1.038271605895));
#320 = VECTOR('',#321,1.);
#321 = DIRECTION('',(-0.328520599109,0.,-0.944496805691));
#322 = PCURVE('',#109,#323);
#323 = DEFINITIONAL_REPRESENTATION('',(#324),#328);
#324 = LINE('',#325,#326);
#325 = CARTESIAN_POINT('',(-2.416222542524E-02,1.054144620895));
#326 = VECTOR('',#327,1.);
#327 = DIRECTION('',(-0.328520599109,-0.944496805691));
#328 = ( GEOMETRIC_REPRESENTATION_CONTEXT(2) 
PARAMETRIC_REPRESENTATION_CONTEXT() REPRESENTATION_CONTEXT('2D SPACE',''
  ) );
#329 = PCURVE('',#137,#330);
#330 = DEFINITIONAL_REPRESENTATION('',(#331),#335);
#331 = LINE('',#332,#333);
#332 = CARTESIAN_POINT('',(0.,-1.5873015E-02));
#333 = VECTOR('',#334,1.);
#334 = DIRECTION('',(1.,0.));
#335 = ( GEOMETRIC_REPRESENTATION_CONTEXT(2) 
PARAMETRIC_REPRESENTATION_CONTEXT() REPRESENTATION_CONTEXT('2D SPACE',''
  ) );
#336 = FACE_BOUND('',#337,.T.);
#337 = EDGE_LOOP('',(#338));
#338 = ORIENTED_EDGE('',*,*,#339,.F.);
#339 = EDGE_CURVE('',#340,#340,#342,.T.);
#340 = VERTEX_POINT('',#341);
#341 = CARTESIAN_POINT('',(0.11798945923,0.,0.445678955906));
#342 = SURFACE_CURVE('',#343,(#348,#355),.PCURVE_S1.);
#343 = CIRCLE('',#344,0.158024700483);
#344 = AXIS2_PLACEMENT_3D('',#345,#346,#347);
#345 = CARTESIAN_POINT('',(-4.003524125309E-02,0.,0.445678955906));
#346 = DIRECTION('',(0.,-1.,0.));
#347 = DIRECTION('',(1.,0.,0.));
#348 = PCURVE('',#109,#349);
#349 = DEFINITIONAL_REPRESENTATION('',(#350),#354);
#350 = CIRCLE('',#351,0.158024700483);
#351 = AXIS2_PLACEMENT_2D('',#352,#353);
#352 = CARTESIAN_POINT('',(-2.416222625309E-02,0.461551970906));
#353 = DIRECTION('',(1.,0.));
#354 = ( GEOMETRIC_REPRESENTATION_CONTEXT(2) 
PARAMETRIC_REPRESENTATION_CONTEXT() REPRESENTATION_CONTEXT('2D SPACE',''
  ) );
#355 = PCURVE('',#356,#361);
#356 = CYLINDRICAL_SURFACE('',#357,0.158024700483);
#357 = AXIS2_PLACEMENT_3D('',#358,#359,#360);
#358 = CARTESIAN_POINT('',(-4.003524125309E-02,-1.5873015E-02,
    0.445678955906));
#359 = DIRECTION('',(0.,-1.,0.));
#360 = DIRECTION('',(1.,0.,0.));
#361 = DEFINITIONAL_REPRESENTATION('',(#362),#366);
#362 = LINE('',#363,#364);
#363 = CARTESIAN_POINT('',(0.,-1.5873015E-02));
#364 = VECTOR('',#365,1.);
#365 = DIRECTION('',(1.,0.));
#366 = ( GEOMETRIC_REPRESENTATION_CONTEXT(2) 
PARAMETRIC_REPRESENTATION_CONTEXT() REPRESENTATION_CONTEXT('2D SPACE',''
  ) );
#367 = ADVANCED_FACE('',(#368),#192,.T.);
#368 = FACE_BOUND('',#369,.T.);
#369 = EDGE_LOOP('',(#370,#371,#372,#395));
#370 = ORIENTED_EDGE('',*,*,#208,.F.);
#371 = ORIENTED_EDGE('',*,*,#178,.T.);
#372 = ORIENTED_EDGE('',*,*,#373,.T.);
#373 = EDGE_CURVE('',#150,#374,#376,.T.);
#374 = VERTEX_POINT('',#375);
#375 = CARTESIAN_POINT('',(-4.003524042524E-02,3.174603E-02,
    -0.146913647725));
#376 = SURFACE_CURVE('',#377,(#381,#388),.PCURVE_S1.);
#377 = LINE('',#378,#379);
#378 = CARTESIAN_POINT('',(-0.198059931471,3.174603E-02,0.307407349275)
  );
#379 = VECTOR('',#380,1.);
#380 = DIRECTION('',(0.328520618333,0.,-0.944496799005));
#381 = PCURVE('',#192,#382);
#382 = DEFINITIONAL_REPRESENTATION('',(#383),#387);
#383 = LINE('',#384,#385);
#384 = CARTESIAN_POINT('',(0.,-4.7619045E-02));
#385 = VECTOR('',#386,1.);
#386 = DIRECTION('',(1.,0.));
#387 = ( GEOMETRIC_REPRESENTATION_CONTEXT(2) 
PARAMETRIC_REPRESENTATION_CONTEXT() REPRESENTATION_CONTEXT('2D SPACE',''
  ) );
#388 = PCURVE('',#166,#389);
#389 = DEFINITIONAL_REPRESENTATION('',(#390),#394);
#390 = LINE('',#391,#392);
#391 = CARTESIAN_POINT('',(-0.182186916471,0.323280364275));
#392 = VECTOR('',#393,1.);
#393 = DIRECTION('',(0.328520618333,-0.944496799005));
#394 = ( GEOMETRIC_REPRESENTATION_CONTEXT(2) 
PARAMETRIC_REPRESENTATION_CONTEXT() REPRESENTATION_CONTEXT('2D SPACE',''
  ) );
#395 = ORIENTED_EDGE('',*,*,#396,.F.);
#396 = EDGE_CURVE('',#209,#374,#397,.T.);
#397 = SURFACE_CURVE('',#398,(#402,#409),.PCURVE_S1.);
#398 = LINE('',#399,#400);
#399 = CARTESIAN_POINT('',(-4.003524042524E-02,-1.5873015E-02,
    -0.146913647725));
#400 = VECTOR('',#401,1.);
#401 = DIRECTION('',(-0.,1.,-0.));
#402 = PCURVE('',#192,#403);
#403 = DEFINITIONAL_REPRESENTATION('',(#404),#408);
#404 = LINE('',#405,#406);
#405 = CARTESIAN_POINT('',(0.481019096601,0.));
#406 = VECTOR('',#407,1.);
#407 = DIRECTION('',(0.,-1.));
#408 = ( GEOMETRIC_REPRESENTATION_CONTEXT(2) 
PARAMETRIC_REPRESENTATION_CONTEXT() REPRESENTATION_CONTEXT('2D SPACE',''
  ) );
#409 = PCURVE('',#247,#410);
#410 = DEFINITIONAL_REPRESENTATION('',(#411),#415);
#411 = LINE('',#412,#413);
#412 = CARTESIAN_POINT('',(0.,0.));
#413 = VECTOR('',#414,1.);
#414 = DIRECTION('',(0.,-1.));
#415 = ( GEOMETRIC_REPRESENTATION_CONTEXT(2) 
PARAMETRIC_REPRESENTATION_CONTEXT() REPRESENTATION_CONTEXT('2D SPACE',''
  ) );
#416 = ADVANCED_FACE('',(#417,#512),#166,.F.);
#417 = FACE_BOUND('',#418,.F.);
#418 = EDGE_LOOP('',(#419,#420,#421,#444,#468,#491));
#419 = ORIENTED_EDGE('',*,*,#149,.T.);
#420 = ORIENTED_EDGE('',*,*,#373,.T.);
#421 = ORIENTED_EDGE('',*,*,#422,.T.);
#422 = EDGE_CURVE('',#374,#423,#425,.T.);
#423 = VERTEX_POINT('',#424);
#424 = CARTESIAN_POINT('',(0.117989480422,3.174603E-02,0.307407349275));
#425 = SURFACE_CURVE('',#426,(#430,#437),.PCURVE_S1.);
#426 = LINE('',#427,#428);
#427 = CARTESIAN_POINT('',(-4.003524042524E-02,3.174603E-02,
    -0.146913647725));
#428 = VECTOR('',#429,1.);
#429 = DIRECTION('',(0.328520673603,0.,0.94449677978));
#430 = PCURVE('',#166,#431);
#431 = DEFINITIONAL_REPRESENTATION('',(#432),#436);
#432 = LINE('',#433,#434);
#433 = CARTESIAN_POINT('',(-2.416222542524E-02,-0.131040632725));
#434 = VECTOR('',#435,1.);
#435 = DIRECTION('',(0.328520673603,0.94449677978));
#436 = ( GEOMETRIC_REPRESENTATION_CONTEXT(2) 
PARAMETRIC_REPRESENTATION_CONTEXT() REPRESENTATION_CONTEXT('2D SPACE',''
  ) );
#437 = PCURVE('',#247,#438);
#438 = DEFINITIONAL_REPRESENTATION('',(#439),#443);
#439 = LINE('',#440,#441);
#440 = CARTESIAN_POINT('',(0.,-4.7619045E-02));
#441 = VECTOR('',#442,1.);
#442 = DIRECTION('',(1.,0.));
#443 = ( GEOMETRIC_REPRESENTATION_CONTEXT(2) 
PARAMETRIC_REPRESENTATION_CONTEXT() REPRESENTATION_CONTEXT('2D SPACE',''
  ) );
#444 = ORIENTED_EDGE('',*,*,#445,.T.);
#445 = EDGE_CURVE('',#423,#446,#448,.T.);
#446 = VERTEX_POINT('',#447);
#447 = CARTESIAN_POINT('',(0.117989480422,3.174603E-02,0.583950579093));
#448 = SURFACE_CURVE('',#449,(#454,#461),.PCURVE_S1.);
#449 = CIRCLE('',#450,0.493827298284);
#450 = AXIS2_PLACEMENT_3D('',#451,#452,#453);
#451 = CARTESIAN_POINT('',(-0.356084734275,3.174603E-02,0.445678964184)
  );
#452 = DIRECTION('',(0.,-1.,0.));
#453 = DIRECTION('',(0.960000016898,0.,-0.279999942064));
#454 = PCURVE('',#166,#455);
#455 = DEFINITIONAL_REPRESENTATION('',(#456),#460);
#456 = CIRCLE('',#457,0.493827298284);
#457 = AXIS2_PLACEMENT_2D('',#458,#459);
#458 = CARTESIAN_POINT('',(-0.340211719275,0.461551979184));
#459 = DIRECTION('',(0.960000016898,-0.279999942064));
#460 = ( GEOMETRIC_REPRESENTATION_CONTEXT(2) 
PARAMETRIC_REPRESENTATION_CONTEXT() REPRESENTATION_CONTEXT('2D SPACE',''
  ) );
#461 = PCURVE('',#276,#462);
#462 = DEFINITIONAL_REPRESENTATION('',(#463),#467);
#463 = LINE('',#464,#465);
#464 = CARTESIAN_POINT('',(0.,-4.7619045E-02));
#465 = VECTOR('',#466,1.);
#466 = DIRECTION('',(1.,0.));
#467 = ( GEOMETRIC_REPRESENTATION_CONTEXT(2) 
PARAMETRIC_REPRESENTATION_CONTEXT() REPRESENTATION_CONTEXT('2D SPACE',''
  ) );
#468 = ORIENTED_EDGE('',*,*,#469,.T.);
#469 = EDGE_CURVE('',#446,#470,#472,.T.);
#470 = VERTEX_POINT('',#471);
#471 = CARTESIAN_POINT('',(-4.003524042524E-02,3.174603E-02,
    1.038271605895));
#472 = SURFACE_CURVE('',#473,(#477,#484),.PCURVE_S1.);
#473 = LINE('',#474,#475);
#474 = CARTESIAN_POINT('',(0.117989480422,3.174603E-02,0.583950579093));
#475 = VECTOR('',#476,1.);
#476 = DIRECTION('',(-0.328520654379,0.,0.944496786467));
#477 = PCURVE('',#166,#478);
#478 = DEFINITIONAL_REPRESENTATION('',(#479),#483);
#479 = LINE('',#480,#481);
#480 = CARTESIAN_POINT('',(0.133862495422,0.599823594093));
#481 = VECTOR('',#482,1.);
#482 = DIRECTION('',(-0.328520654379,0.944496786467));
#483 = ( GEOMETRIC_REPRESENTATION_CONTEXT(2) 
PARAMETRIC_REPRESENTATION_CONTEXT() REPRESENTATION_CONTEXT('2D SPACE',''
  ) );
#484 = PCURVE('',#304,#485);
#485 = DEFINITIONAL_REPRESENTATION('',(#486),#490);
#486 = LINE('',#487,#488);
#487 = CARTESIAN_POINT('',(0.,-4.7619045E-02));
#488 = VECTOR('',#489,1.);
#489 = DIRECTION('',(1.,0.));
#490 = ( GEOMETRIC_REPRESENTATION_CONTEXT(2) 
PARAMETRIC_REPRESENTATION_CONTEXT() REPRESENTATION_CONTEXT('2D SPACE',''
  ) );
#491 = ORIENTED_EDGE('',*,*,#492,.T.);
#492 = EDGE_CURVE('',#470,#122,#493,.T.);
#493 = SURFACE_CURVE('',#494,(#498,#505),.PCURVE_S1.);
#494 = LINE('',#495,#496);
#495 = CARTESIAN_POINT('',(-4.003524042524E-02,3.174603E-02,
    1.038271605895));
#496 = VECTOR('',#497,1.);
#497 = DIRECTION('',(-0.328520599109,0.,-0.944496805691));
#498 = PCURVE('',#166,#499);
#499 = DEFINITIONAL_REPRESENTATION('',(#500),#504);
#500 = LINE('',#501,#502);
#501 = CARTESIAN_POINT('',(-2.416222542524E-02,1.054144620895));
#502 = VECTOR('',#503,1.);
#503 = DIRECTION('',(-0.328520599109,-0.944496805691));
#504 = ( GEOMETRIC_REPRESENTATION_CONTEXT(2) 
PARAMETRIC_REPRESENTATION_CONTEXT() REPRESENTATION_CONTEXT('2D SPACE',''
  ) );
#505 = PCURVE('',#137,#506);
#506 = DEFINITIONAL_REPRESENTATION('',(#507),#511);
#507 = LINE('',#508,#509);
#508 = CARTESIAN_POINT('',(0.,-4.7619045E-02));
#509 = VECTOR('',#510,1.);
#510 = DIRECTION('',(1.,0.));
#511 = ( GEOMETRIC_REPRESENTATION_CONTEXT(2) 
PARAMETRIC_REPRESENTATION_CONTEXT() REPRESENTATION_CONTEXT('2D SPACE',''
  ) );
#512 = FACE_BOUND('',#513,.F.);
#513 = EDGE_LOOP('',(#514));
#514 = ORIENTED_EDGE('',*,*,#515,.F.);
#515 = EDGE_CURVE('',#516,#516,#518,.T.);
#516 = VERTEX_POINT('',#517);
#517 = CARTESIAN_POINT('',(0.11798945923,3.174603E-02,0.445678955906));
#518 = SURFACE_CURVE('',#519,(#524,#531),.PCURVE_S1.);
#519 = CIRCLE('',#520,0.158024700483);
#520 = AXIS2_PLACEMENT_3D('',#521,#522,#523);
#521 = CARTESIAN_POINT('',(-4.003524125309E-02,3.174603E-02,
    0.445678955906));
#522 = DIRECTION('',(0.,-1.,0.));
#523 = DIRECTION('',(1.,0.,0.));
#524 = PCURVE('',#166,#525);
#525 = DEFINITIONAL_REPRESENTATION('',(#526),#530);
#526 = CIRCLE('',#527,0.158024700483);
#527 = AXIS2_PLACEMENT_2D('',#528,#529);
#528 = CARTESIAN_POINT('',(-2.416222625309E-02,0.461551970906));
#529 = DIRECTION('',(1.,0.));
#530 = ( GEOMETRIC_REPRESENTATION_CONTEXT(2) 
PARAMETRIC_REPRESENTATION_CONTEXT() REPRESENTATION_CONTEXT('2D SPACE',''
  ) );
#531 = PCURVE('',#356,#532);
#532 = DEFINITIONAL_REPRESENTATION('',(#533),#537);
#533 = LINE('',#534,#535);
#534 = CARTESIAN_POINT('',(0.,-4.7619045E-02));
#535 = VECTOR('',#536,1.);
#536 = DIRECTION('',(1.,0.));
#537 = ( GEOMETRIC_REPRESENTATION_CONTEXT(2) 
PARAMETRIC_REPRESENTATION_CONTEXT() REPRESENTATION_CONTEXT('2D SPACE',''
  ) );
#538 = ADVANCED_FACE('',(#539),#137,.T.);
#539 = FACE_BOUND('',#540,.T.);
#540 = EDGE_LOOP('',(#541,#542,#563,#564));
#541 = ORIENTED_EDGE('',*,*,#316,.F.);
#542 = ORIENTED_EDGE('',*,*,#543,.T.);
#543 = EDGE_CURVE('',#289,#470,#544,.T.);
#544 = SURFACE_CURVE('',#545,(#549,#556),.PCURVE_S1.);
#545 = LINE('',#546,#547);
#546 = CARTESIAN_POINT('',(-4.003524042524E-02,-1.5873015E-02,
    1.038271605895));
#547 = VECTOR('',#548,1.);
#548 = DIRECTION('',(-0.,1.,-0.));
#549 = PCURVE('',#137,#550);
#550 = DEFINITIONAL_REPRESENTATION('',(#551),#555);
#551 = LINE('',#552,#553);
#552 = CARTESIAN_POINT('',(0.,0.));
#553 = VECTOR('',#554,1.);
#554 = DIRECTION('',(0.,-1.));
#555 = ( GEOMETRIC_REPRESENTATION_CONTEXT(2) 
PARAMETRIC_REPRESENTATION_CONTEXT() REPRESENTATION_CONTEXT('2D SPACE',''
  ) );
#556 = PCURVE('',#304,#557);
#557 = DEFINITIONAL_REPRESENTATION('',(#558),#562);
#558 = LINE('',#559,#560);
#559 = CARTESIAN_POINT('',(0.48101913454,0.));
#560 = VECTOR('',#561,1.);
#561 = DIRECTION('',(0.,-1.));
#562 = ( GEOMETRIC_REPRESENTATION_CONTEXT(2) 
PARAMETRIC_REPRESENTATION_CONTEXT() REPRESENTATION_CONTEXT('2D SPACE',''
  ) );
#563 = ORIENTED_EDGE('',*,*,#492,.T.);
#564 = ORIENTED_EDGE('',*,*,#121,.F.);
#565 = ADVANCED_FACE('',(#566),#304,.T.);
#566 = FACE_BOUND('',#567,.T.);
#567 = EDGE_LOOP('',(#568,#569,#590,#591));
#568 = ORIENTED_EDGE('',*,*,#288,.F.);
#569 = ORIENTED_EDGE('',*,*,#570,.T.);
#570 = EDGE_CURVE('',#260,#446,#571,.T.);
#571 = SURFACE_CURVE('',#572,(#576,#583),.PCURVE_S1.);
#572 = LINE('',#573,#574);
#573 = CARTESIAN_POINT('',(0.117989480422,-1.5873015E-02,0.583950579093)
  );
#574 = VECTOR('',#575,1.);
#575 = DIRECTION('',(-0.,1.,-0.));
#576 = PCURVE('',#304,#577);
#577 = DEFINITIONAL_REPRESENTATION('',(#578),#582);
#578 = LINE('',#579,#580);
#579 = CARTESIAN_POINT('',(-1.185376276979E-16,0.));
#580 = VECTOR('',#581,1.);
#581 = DIRECTION('',(0.,-1.));
#582 = ( GEOMETRIC_REPRESENTATION_CONTEXT(2) 
PARAMETRIC_REPRESENTATION_CONTEXT() REPRESENTATION_CONTEXT('2D SPACE',''
  ) );
#583 = PCURVE('',#276,#584);
#584 = DEFINITIONAL_REPRESENTATION('',(#585),#589);
#585 = LINE('',#586,#587);
#586 = CARTESIAN_POINT('',(0.567588097717,0.));
#587 = VECTOR('',#588,1.);
#588 = DIRECTION('',(0.,-1.));
#589 = ( GEOMETRIC_REPRESENTATION_CONTEXT(2) 
PARAMETRIC_REPRESENTATION_CONTEXT() REPRESENTATION_CONTEXT('2D SPACE',''
  ) );
#590 = ORIENTED_EDGE('',*,*,#469,.T.);
#591 = ORIENTED_EDGE('',*,*,#543,.F.);
#592 = ADVANCED_FACE('',(#593),#247,.T.);
#593 = FACE_BOUND('',#594,.T.);
#594 = EDGE_LOOP('',(#595,#596,#597,#598));
#595 = ORIENTED_EDGE('',*,*,#231,.F.);
#596 = ORIENTED_EDGE('',*,*,#396,.T.);
#597 = ORIENTED_EDGE('',*,*,#422,.T.);
#598 = ORIENTED_EDGE('',*,*,#599,.F.);
#599 = EDGE_CURVE('',#232,#423,#600,.T.);
#600 = SURFACE_CURVE('',#601,(#605,#612),.PCURVE_S1.);
#601 = LINE('',#602,#603);
#602 = CARTESIAN_POINT('',(0.117989480422,-1.5873015E-02,0.307407349275)
  );
#603 = VECTOR('',#604,1.);
#604 = DIRECTION('',(-0.,1.,-0.));
#605 = PCURVE('',#247,#606);
#606 = DEFINITIONAL_REPRESENTATION('',(#607),#611);
#607 = LINE('',#608,#609);
#608 = CARTESIAN_POINT('',(0.481019106392,0.));
#609 = VECTOR('',#610,1.);
#610 = DIRECTION('',(0.,-1.));
#611 = ( GEOMETRIC_REPRESENTATION_CONTEXT(2) 
PARAMETRIC_REPRESENTATION_CONTEXT() REPRESENTATION_CONTEXT('2D SPACE',''
  ) );
#612 = PCURVE('',#276,#613);
#613 = DEFINITIONAL_REPRESENTATION('',(#614),#618);
#614 = LINE('',#615,#616);
#615 = CARTESIAN_POINT('',(0.,0.));
#616 = VECTOR('',#617,1.);
#617 = DIRECTION('',(0.,-1.));
#618 = ( GEOMETRIC_REPRESENTATION_CONTEXT(2) 
PARAMETRIC_REPRESENTATION_CONTEXT() REPRESENTATION_CONTEXT('2D SPACE',''
  ) );
#619 = ADVANCED_FACE('',(#620),#276,.T.);
#620 = FACE_BOUND('',#621,.T.);
#621 = EDGE_LOOP('',(#622,#623,#624,#625));
#622 = ORIENTED_EDGE('',*,*,#259,.F.);
#623 = ORIENTED_EDGE('',*,*,#599,.T.);
#624 = ORIENTED_EDGE('',*,*,#445,.T.);
#625 = ORIENTED_EDGE('',*,*,#570,.F.);
#626 = ADVANCED_FACE('',(#627),#356,.F.);
#627 = FACE_BOUND('',#628,.F.);
#628 = EDGE_LOOP('',(#629,#630,#651,#652));
#629 = ORIENTED_EDGE('',*,*,#339,.F.);
#630 = ORIENTED_EDGE('',*,*,#631,.T.);
#631 = EDGE_CURVE('',#340,#516,#632,.T.);
#632 = SEAM_CURVE('',#633,(#637,#644),.PCURVE_S1.);
#633 = LINE('',#634,#635);
#634 = CARTESIAN_POINT('',(0.11798945923,-1.5873015E-02,0.445678955906)
  );
#635 = VECTOR('',#636,1.);
#636 = DIRECTION('',(-0.,1.,-0.));
#637 = PCURVE('',#356,#638);
#638 = DEFINITIONAL_REPRESENTATION('',(#639),#643);
#639 = LINE('',#640,#641);
#640 = CARTESIAN_POINT('',(6.28318530718,0.));
#641 = VECTOR('',#642,1.);
#642 = DIRECTION('',(0.,-1.));
#643 = ( GEOMETRIC_REPRESENTATION_CONTEXT(2) 
PARAMETRIC_REPRESENTATION_CONTEXT() REPRESENTATION_CONTEXT('2D SPACE',''
  ) );
#644 = PCURVE('',#356,#645);
#645 = DEFINITIONAL_REPRESENTATION('',(#646),#650);
#646 = LINE('',#647,#648);
#647 = CARTESIAN_POINT('',(0.,0.));
#648 = VECTOR('',#649,1.);
#649 = DIRECTION('',(0.,-1.));
#650 = ( GEOMETRIC_REPRESENTATION_CONTEXT(2) 
PARAMETRIC_REPRESENTATION_CONTEXT() REPRESENTATION_CONTEXT('2D SPACE',''
  ) );
#651 = ORIENTED_EDGE('',*,*,#515,.T.);
#652 = ORIENTED_EDGE('',*,*,#631,.F.);
#653 = ( GEOMETRIC_REPRESENTATION_CONTEXT(3) 
GLOBAL_UNCERTAINTY_ASSIGNED_CONTEXT((#657)) GLOBAL_UNIT_ASSIGNED_CONTEXT
((#654,#655,#656)) REPRESENTATION_CONTEXT('Context #1',
  '3D Context with UNIT and UNCERTAINTY') );
#654 = ( LENGTH_UNIT() NAMED_UNIT(*) SI_UNIT(.MILLI.,.METRE.) );
#655 = ( NAMED_UNIT(*) PLANE_ANGLE_UNIT() SI_UNIT($,.RADIAN.) );
#656 = ( NAMED_UNIT(*) SI_UNIT($,.STERADIAN.) SOLID_ANGLE_UNIT() );
#657 = UNCERTAINTY_MEASURE_WITH_UNIT(LENGTH_MEASURE(1.E-07),#654,
  'distance_accuracy_value','confusion accuracy');
#658 = CONTEXT_DEPENDENT_SHAPE_REPRESENTATION(#659,#661);
#659 = ( REPRESENTATION_RELATIONSHIP('','',#78,#10) 
REPRESENTATION_RELATIONSHIP_WITH_TRANSFORMATION(#660) 
SHAPE_REPRESENTATION_RELATIONSHIP() );
#660 = ITEM_DEFINED_TRANSFORMATION('','',#11,#15);
#661 = PRODUCT_DEFINITION_SHAPE('Placement','Placement of an item',#662
  );
#662 = NEXT_ASSEMBLY_USAGE_OCCURRENCE('43','','',#5,#73,$);
#663 = CC_DESIGN_SECURITY_CLASSIFICATION(#664,(#662));
#664 = SECURITY_CLASSIFICATION('','',#55);
#665 = CC_DESIGN_PERSON_AND_ORGANIZATION_ASSIGNMENT(#44,#53,(#664));
#666 = CC_DESIGN_DATE_AND_TIME_ASSIGNMENT(#58,#64,(#664));
#667 = CC_DESIGN_APPROVAL(#66,(#664));
#668 = PRODUCT_RELATED_PRODUCT_CATEGORY('detail',$,(#75));
#669 = PRODUCT_CATEGORY_RELATIONSHIP('','',#670,#668);
#670 = PRODUCT_CATEGORY('part',$);
#671 = CC_DESIGN_PERSON_AND_ORGANIZATION_ASSIGNMENT(#44,#47,(#74,#73));
#672 = CC_DESIGN_PERSON_AND_ORGANIZATION_ASSIGNMENT(#44,#49,(#75));
#673 = CC_DESIGN_PERSON_AND_ORGANIZATION_ASSIGNMENT(#44,#51,(#74));
#674 = CC_DESIGN_PERSON_AND_ORGANIZATION_ASSIGNMENT(#44,#53,(#675));
#675 = SECURITY_CLASSIFICATION('','',#55);
#676 = CC_DESIGN_SECURITY_CLASSIFICATION(#675,(#74));
#677 = CC_DESIGN_DATE_AND_TIME_ASSIGNMENT(#58,#62,(#73));
#678 = CC_DESIGN_DATE_AND_TIME_ASSIGNMENT(#58,#64,(#675));
#679 = CC_DESIGN_APPROVAL(#66,(#74,#73,#675));
#680 = SHAPE_DEFINITION_REPRESENTATION(#681,#687);
#681 = PRODUCT_DEFINITION_SHAPE('','',#682);
#682 = PRODUCT_DEFINITION('design','',#683,#686);
#683 = PRODUCT_DEFINITION_FORMATION_WITH_SPECIFIED_SOURCE('','',#684,
  .NOT_KNOWN.);
#684 = PRODUCT('Open CASCADE STEP translator 7.7 361.2',
  'Open CASCADE STEP translator 7.7 361.2','',(#685));
#685 = MECHANICAL_CONTEXT('',#2,'mechanical');
#686 = DESIGN_CONTEXT('',#2,'design');
#687 = ADVANCED_BREP_SHAPE_REPRESENTATION('',(#11,#688),#841);
#688 = MANIFOLD_SOLID_BREP('',#689);
#689 = CLOSED_SHELL('',(#690,#778,#833,#837));
#690 = ADVANCED_FACE('',(#691),#705,.T.);
#691 = FACE_BOUND('',#692,.F.);
#692 = EDGE_LOOP('',(#693,#723,#750,#751));
#693 = ORIENTED_EDGE('',*,*,#694,.T.);
#694 = EDGE_CURVE('',#695,#697,#699,.T.);
#695 = VERTEX_POINT('',#696);
#696 = CARTESIAN_POINT('',(-0.356084642218,-1.5873015E-02,
    8.941804392285E-02));
#697 = VERTEX_POINT('',#698);
#698 = CARTESIAN_POINT('',(-0.356084642218,-3.174609E-02,
    8.941804392285E-02));
#699 = SEAM_CURVE('',#700,(#704,#716),.PCURVE_S1.);
#700 = LINE('',#701,#702);
#701 = CARTESIAN_POINT('',(-0.356084642218,-1.5873015E-02,
    8.941804392285E-02));
#702 = VECTOR('',#703,1.);
#703 = DIRECTION('',(0.,-1.,0.));
#704 = PCURVE('',#705,#710);
#705 = CYLINDRICAL_SURFACE('',#706,5.925925572713E-02);
#706 = AXIS2_PLACEMENT_3D('',#707,#708,#709);
#707 = CARTESIAN_POINT('',(-0.415343897946,-1.5873015E-02,
    8.941804392285E-02));
#708 = DIRECTION('',(-0.,1.,-0.));
#709 = DIRECTION('',(1.,0.,0.));
#710 = DEFINITIONAL_REPRESENTATION('',(#711),#715);
#711 = LINE('',#712,#713);
#712 = CARTESIAN_POINT('',(-0.,0.));
#713 = VECTOR('',#714,1.);
#714 = DIRECTION('',(-0.,-1.));
#715 = ( GEOMETRIC_REPRESENTATION_CONTEXT(2) 
PARAMETRIC_REPRESENTATION_CONTEXT() REPRESENTATION_CONTEXT('2D SPACE',''
  ) );
#716 = PCURVE('',#705,#717);
#717 = DEFINITIONAL_REPRESENTATION('',(#718),#722);
#718 = LINE('',#719,#720);
#719 = CARTESIAN_POINT('',(-6.28318530718,0.));
#720 = VECTOR('',#721,1.);
#721 = DIRECTION('',(-0.,-1.));
#722 = ( GEOMETRIC_REPRESENTATION_CONTEXT(2) 
PARAMETRIC_REPRESENTATION_CONTEXT() REPRESENTATION_CONTEXT('2D SPACE',''
  ) );
#723 = ORIENTED_EDGE('',*,*,#724,.T.);
#724 = EDGE_CURVE('',#697,#697,#725,.T.);
#725 = SURFACE_CURVE('',#726,(#731,#738),.PCURVE_S1.);
#726 = CIRCLE('',#727,5.925925572713E-02);
#727 = AXIS2_PLACEMENT_3D('',#728,#729,#730);
#728 = CARTESIAN_POINT('',(-0.415343897946,-3.174609E-02,
    8.941804392285E-02));
#729 = DIRECTION('',(0.,-1.,0.));
#730 = DIRECTION('',(1.,0.,0.));
#731 = PCURVE('',#705,#732);
#732 = DEFINITIONAL_REPRESENTATION('',(#733),#737);
#733 = LINE('',#734,#735);
#734 = CARTESIAN_POINT('',(-0.,-1.5873075E-02));
#735 = VECTOR('',#736,1.);
#736 = DIRECTION('',(-1.,0.));
#737 = ( GEOMETRIC_REPRESENTATION_CONTEXT(2) 
PARAMETRIC_REPRESENTATION_CONTEXT() REPRESENTATION_CONTEXT('2D SPACE',''
  ) );
#738 = PCURVE('',#739,#744);
#739 = PLANE('',#740);
#740 = AXIS2_PLACEMENT_3D('',#741,#742,#743);
#741 = CARTESIAN_POINT('',(-1.5873015E-02,-3.174609E-02,0.4603175));
#742 = DIRECTION('',(0.,-1.,0.));
#743 = DIRECTION('',(1.,0.,0.));
#744 = DEFINITIONAL_REPRESENTATION('',(#745),#749);
#745 = CIRCLE('',#746,5.925925572713E-02);
#746 = AXIS2_PLACEMENT_2D('',#747,#748);
#747 = CARTESIAN_POINT('',(-0.399470882946,-0.370899456077));
#748 = DIRECTION('',(1.,0.));
#749 = ( GEOMETRIC_REPRESENTATION_CONTEXT(2) 
PARAMETRIC_REPRESENTATION_CONTEXT() REPRESENTATION_CONTEXT('2D SPACE',''
  ) );
#750 = ORIENTED_EDGE('',*,*,#694,.F.);
#751 = ORIENTED_EDGE('',*,*,#752,.F.);
#752 = EDGE_CURVE('',#695,#695,#753,.T.);
#753 = SURFACE_CURVE('',#754,(#759,#766),.PCURVE_S1.);
#754 = CIRCLE('',#755,5.925925572713E-02);
#755 = AXIS2_PLACEMENT_3D('',#756,#757,#758);
#756 = CARTESIAN_POINT('',(-0.415343897946,-1.5873015E-02,
    8.941804392285E-02));
#757 = DIRECTION('',(0.,-1.,0.));
#758 = DIRECTION('',(1.,0.,0.));
#759 = PCURVE('',#705,#760);
#760 = DEFINITIONAL_REPRESENTATION('',(#761),#765);
#761 = LINE('',#762,#763);
#762 = CARTESIAN_POINT('',(-0.,0.));
#763 = VECTOR('',#764,1.);
#764 = DIRECTION('',(-1.,0.));
#765 = ( GEOMETRIC_REPRESENTATION_CONTEXT(2) 
PARAMETRIC_REPRESENTATION_CONTEXT() REPRESENTATION_CONTEXT('2D SPACE',''
  ) );
#766 = PCURVE('',#767,#772);
#767 = CYLINDRICAL_SURFACE('',#768,5.925925572713E-02);
#768 = AXIS2_PLACEMENT_3D('',#769,#770,#771);
#769 = CARTESIAN_POINT('',(-0.415343897946,-1.5873015E-02,
    8.941804392285E-02));
#770 = DIRECTION('',(0.,-1.,0.));
#771 = DIRECTION('',(1.,0.,0.));
#772 = DEFINITIONAL_REPRESENTATION('',(#773),#777);
#773 = LINE('',#774,#775);
#774 = CARTESIAN_POINT('',(0.,0.));
#775 = VECTOR('',#776,1.);
#776 = DIRECTION('',(1.,0.));
#777 = ( GEOMETRIC_REPRESENTATION_CONTEXT(2) 
PARAMETRIC_REPRESENTATION_CONTEXT() REPRESENTATION_CONTEXT('2D SPACE',''
  ) );
#778 = ADVANCED_FACE('',(#779),#767,.T.);
#779 = FACE_BOUND('',#780,.T.);
#780 = EDGE_LOOP('',(#781,#804,#831,#832));
#781 = ORIENTED_EDGE('',*,*,#782,.T.);
#782 = EDGE_CURVE('',#695,#783,#785,.T.);
#783 = VERTEX_POINT('',#784);
#784 = CARTESIAN_POINT('',(-0.356084642218,0.,8.941804392285E-02));
#785 = SEAM_CURVE('',#786,(#790,#797),.PCURVE_S1.);
#786 = LINE('',#787,#788);
#787 = CARTESIAN_POINT('',(-0.356084642218,-1.5873015E-02,
    8.941804392285E-02));
#788 = VECTOR('',#789,1.);
#789 = DIRECTION('',(-0.,1.,-0.));
#790 = PCURVE('',#767,#791);
#791 = DEFINITIONAL_REPRESENTATION('',(#792),#796);
#792 = LINE('',#793,#794);
#793 = CARTESIAN_POINT('',(0.,0.));
#794 = VECTOR('',#795,1.);
#795 = DIRECTION('',(0.,-1.));
#796 = ( GEOMETRIC_REPRESENTATION_CONTEXT(2) 
PARAMETRIC_REPRESENTATION_CONTEXT() REPRESENTATION_CONTEXT('2D SPACE',''
  ) );
#797 = PCURVE('',#767,#798);
#798 = DEFINITIONAL_REPRESENTATION('',(#799),#803);
#799 = LINE('',#800,#801);
#800 = CARTESIAN_POINT('',(6.28318530718,0.));
#801 = VECTOR('',#802,1.);
#802 = DIRECTION('',(0.,-1.));
#803 = ( GEOMETRIC_REPRESENTATION_CONTEXT(2) 
PARAMETRIC_REPRESENTATION_CONTEXT() REPRESENTATION_CONTEXT('2D SPACE',''
  ) );
#804 = ORIENTED_EDGE('',*,*,#805,.T.);
#805 = EDGE_CURVE('',#783,#783,#806,.T.);
#806 = SURFACE_CURVE('',#807,(#812,#819),.PCURVE_S1.);
#807 = CIRCLE('',#808,5.925925572713E-02);
#808 = AXIS2_PLACEMENT_3D('',#809,#810,#811);
#809 = CARTESIAN_POINT('',(-0.415343897946,0.,8.941804392285E-02));
#810 = DIRECTION('',(0.,-1.,0.));
#811 = DIRECTION('',(1.,0.,0.));
#812 = PCURVE('',#767,#813);
#813 = DEFINITIONAL_REPRESENTATION('',(#814),#818);
#814 = LINE('',#815,#816);
#815 = CARTESIAN_POINT('',(0.,-1.5873015E-02));
#816 = VECTOR('',#817,1.);
#817 = DIRECTION('',(1.,0.));
#818 = ( GEOMETRIC_REPRESENTATION_CONTEXT(2) 
PARAMETRIC_REPRESENTATION_CONTEXT() REPRESENTATION_CONTEXT('2D SPACE',''
  ) );
#819 = PCURVE('',#820,#825);
#820 = PLANE('',#821);
#821 = AXIS2_PLACEMENT_3D('',#822,#823,#824);
#822 = CARTESIAN_POINT('',(-1.5873015E-02,0.,0.4603175));
#823 = DIRECTION('',(0.,-1.,0.));
#824 = DIRECTION('',(1.,0.,0.));
#825 = DEFINITIONAL_REPRESENTATION('',(#826),#830);
#826 = CIRCLE('',#827,5.925925572713E-02);
#827 = AXIS2_PLACEMENT_2D('',#828,#829);
#828 = CARTESIAN_POINT('',(-0.399470882946,-0.370899456077));
#829 = DIRECTION('',(1.,0.));
#830 = ( GEOMETRIC_REPRESENTATION_CONTEXT(2) 
PARAMETRIC_REPRESENTATION_CONTEXT() REPRESENTATION_CONTEXT('2D SPACE',''
  ) );
#831 = ORIENTED_EDGE('',*,*,#782,.F.);
#832 = ORIENTED_EDGE('',*,*,#752,.F.);
#833 = ADVANCED_FACE('',(#834),#739,.T.);
#834 = FACE_BOUND('',#835,.T.);
#835 = EDGE_LOOP('',(#836));
#836 = ORIENTED_EDGE('',*,*,#724,.T.);
#837 = ADVANCED_FACE('',(#838),#820,.F.);
#838 = FACE_BOUND('',#839,.F.);
#839 = EDGE_LOOP('',(#840));
#840 = ORIENTED_EDGE('',*,*,#805,.T.);
#841 = ( GEOMETRIC_REPRESENTATION_CONTEXT(3) 
GLOBAL_UNCERTAINTY_ASSIGNED_CONTEXT((#845)) GLOBAL_UNIT_ASSIGNED_CONTEXT
((#842,#843,#844)) REPRESENTATION_CONTEXT('Context #1',
  '3D Context with UNIT and UNCERTAINTY') );
#842 = ( LENGTH_UNIT() NAMED_UNIT(*) SI_UNIT(.MILLI.,.METRE.) );
#843 = ( NAMED_UNIT(*) PLANE_ANGLE_UNIT() SI_UNIT($,.RADIAN.) );
#844 = ( NAMED_UNIT(*) SI_UNIT($,.STERADIAN.) SOLID_ANGLE_UNIT() );
#845 = UNCERTAINTY_MEASURE_WITH_UNIT(LENGTH_MEASURE(1.E-07),#842,
  'distance_accuracy_value','confusion accuracy');
#846 = CONTEXT_DEPENDENT_SHAPE_REPRESENTATION(#847,#849);
#847 = ( REPRESENTATION_RELATIONSHIP('','',#687,#10) 
REPRESENTATION_RELATIONSHIP_WITH_TRANSFORMATION(#848) 
SHAPE_REPRESENTATION_RELATIONSHIP() );
#848 = ITEM_DEFINED_TRANSFORMATION('','',#11,#19);
#849 = PRODUCT_DEFINITION_SHAPE('Placement','Placement of an item',#850
  );
#850 = NEXT_ASSEMBLY_USAGE_OCCURRENCE('44','','',#5,#682,$);
#851 = CC_DESIGN_SECURITY_CLASSIFICATION(#852,(#850));
#852 = SECURITY_CLASSIFICATION('','',#55);
#853 = CC_DESIGN_PERSON_AND_ORGANIZATION_ASSIGNMENT(#44,#53,(#852));
#854 = CC_DESIGN_DATE_AND_TIME_ASSIGNMENT(#58,#64,(#852));
#855 = CC_DESIGN_APPROVAL(#66,(#852));
#856 = PRODUCT_RELATED_PRODUCT_CATEGORY('detail',$,(#684));
#857 = PRODUCT_CATEGORY_RELATIONSHIP('','',#858,#856);
#858 = PRODUCT_CATEGORY('part',$);
#859 = CC_DESIGN_PERSON_AND_ORGANIZATION_ASSIGNMENT(#44,#47,(#683,#682)
  );
#860 = CC_DESIGN_PERSON_AND_ORGANIZATION_ASSIGNMENT(#44,#49,(#684));
#861 = CC_DESIGN_PERSON_AND_ORGANIZATION_ASSIGNMENT(#44,#51,(#683));
#862 = CC_DESIGN_PERSON_AND_ORGANIZATION_ASSIGNMENT(#44,#53,(#863));
#863 = SECURITY_CLASSIFICATION('','',#55);
#864 = CC_DESIGN_SECURITY_CLASSIFICATION(#863,(#683));
#865 = CC_DESIGN_DATE_AND_TIME_ASSIGNMENT(#58,#62,(#682));
#866 = CC_DESIGN_DATE_AND_TIME_ASSIGNMENT(#58,#64,(#863));
#867 = CC_DESIGN_APPROVAL(#66,(#683,#682,#863));
#868 = SHAPE_DEFINITION_REPRESENTATION(#869,#875);
#869 = PRODUCT_DEFINITION_SHAPE('','',#870);
#870 = PRODUCT_DEFINITION('design','',#871,#874);
#871 = PRODUCT_DEFINITION_FORMATION_WITH_SPECIFIED_SOURCE('','',#872,
  .NOT_KNOWN.);
#872 = PRODUCT('Open CASCADE STEP translator 7.7 361.3',
  'Open CASCADE STEP translator 7.7 361.3','',(#873));
#873 = MECHANICAL_CONTEXT('',#2,'mechanical');
#874 = DESIGN_CONTEXT('',#2,'design');
#875 = ADVANCED_BREP_SHAPE_REPRESENTATION('',(#11,#876),#1029);
#876 = MANIFOLD_SOLID_BREP('',#877);
#877 = CLOSED_SHELL('',(#878,#966,#1021,#1025));
#878 = ADVANCED_FACE('',(#879),#893,.T.);
#879 = FACE_BOUND('',#880,.F.);
#880 = EDGE_LOOP('',(#881,#911,#938,#939));
#881 = ORIENTED_EDGE('',*,*,#882,.T.);
#882 = EDGE_CURVE('',#883,#885,#887,.T.);
#883 = VERTEX_POINT('',#884);
#884 = CARTESIAN_POINT('',(-0.356084642218,-1.5873015E-02,0.840035357308
    ));
#885 = VERTEX_POINT('',#886);
#886 = CARTESIAN_POINT('',(-0.356084642218,-3.174609E-02,0.840035357308)
  );
#887 = SEAM_CURVE('',#888,(#892,#904),.PCURVE_S1.);
#888 = LINE('',#889,#890);
#889 = CARTESIAN_POINT('',(-0.356084642218,-1.5873015E-02,0.840035357308
    ));
#890 = VECTOR('',#891,1.);
#891 = DIRECTION('',(0.,-1.,0.));
#892 = PCURVE('',#893,#898);
#893 = CYLINDRICAL_SURFACE('',#894,5.925925572713E-02);
#894 = AXIS2_PLACEMENT_3D('',#895,#896,#897);
#895 = CARTESIAN_POINT('',(-0.415343897946,-1.5873015E-02,0.840035357308
    ));
#896 = DIRECTION('',(-0.,1.,-0.));
#897 = DIRECTION('',(1.,0.,0.));
#898 = DEFINITIONAL_REPRESENTATION('',(#899),#903);
#899 = LINE('',#900,#901);
#900 = CARTESIAN_POINT('',(-0.,0.));
#901 = VECTOR('',#902,1.);
#902 = DIRECTION('',(-0.,-1.));
#903 = ( GEOMETRIC_REPRESENTATION_CONTEXT(2) 
PARAMETRIC_REPRESENTATION_CONTEXT() REPRESENTATION_CONTEXT('2D SPACE',''
  ) );
#904 = PCURVE('',#893,#905);
#905 = DEFINITIONAL_REPRESENTATION('',(#906),#910);
#906 = LINE('',#907,#908);
#907 = CARTESIAN_POINT('',(-6.28318530718,0.));
#908 = VECTOR('',#909,1.);
#909 = DIRECTION('',(-0.,-1.));
#910 = ( GEOMETRIC_REPRESENTATION_CONTEXT(2) 
PARAMETRIC_REPRESENTATION_CONTEXT() REPRESENTATION_CONTEXT('2D SPACE',''
  ) );
#911 = ORIENTED_EDGE('',*,*,#912,.T.);
#912 = EDGE_CURVE('',#885,#885,#913,.T.);
#913 = SURFACE_CURVE('',#914,(#919,#926),.PCURVE_S1.);
#914 = CIRCLE('',#915,5.925925572713E-02);
#915 = AXIS2_PLACEMENT_3D('',#916,#917,#918);
#916 = CARTESIAN_POINT('',(-0.415343897946,-3.174609E-02,0.840035357308)
  );
#917 = DIRECTION('',(0.,-1.,0.));
#918 = DIRECTION('',(1.,0.,0.));
#919 = PCURVE('',#893,#920);
#920 = DEFINITIONAL_REPRESENTATION('',(#921),#925);
#921 = LINE('',#922,#923);
#922 = CARTESIAN_POINT('',(-0.,-1.5873075E-02));
#923 = VECTOR('',#924,1.);
#924 = DIRECTION('',(-1.,0.));
#925 = ( GEOMETRIC_REPRESENTATION_CONTEXT(2) 
PARAMETRIC_REPRESENTATION_CONTEXT() REPRESENTATION_CONTEXT('2D SPACE',''
  ) );
#926 = PCURVE('',#927,#932);
#927 = PLANE('',#928);
#928 = AXIS2_PLACEMENT_3D('',#929,#930,#931);
#929 = CARTESIAN_POINT('',(-1.5873015E-02,-3.174609E-02,0.4603175));
#930 = DIRECTION('',(0.,-1.,0.));
#931 = DIRECTION('',(1.,0.,0.));
#932 = DEFINITIONAL_REPRESENTATION('',(#933),#937);
#933 = CIRCLE('',#934,5.925925572713E-02);
#934 = AXIS2_PLACEMENT_2D('',#935,#936);
#935 = CARTESIAN_POINT('',(-0.399470882946,0.379717857308));
#936 = DIRECTION('',(1.,0.));
#937 = ( GEOMETRIC_REPRESENTATION_CONTEXT(2) 
PARAMETRIC_REPRESENTATION_CONTEXT() REPRESENTATION_CONTEXT('2D SPACE',''
  ) );
#938 = ORIENTED_EDGE('',*,*,#882,.F.);
#939 = ORIENTED_EDGE('',*,*,#940,.F.);
#940 = EDGE_CURVE('',#883,#883,#941,.T.);
#941 = SURFACE_CURVE('',#942,(#947,#954),.PCURVE_S1.);
#942 = CIRCLE('',#943,5.925925572713E-02);
#943 = AXIS2_PLACEMENT_3D('',#944,#945,#946);
#944 = CARTESIAN_POINT('',(-0.415343897946,-1.5873015E-02,0.840035357308
    ));
#945 = DIRECTION('',(0.,-1.,0.));
#946 = DIRECTION('',(1.,0.,0.));
#947 = PCURVE('',#893,#948);
#948 = DEFINITIONAL_REPRESENTATION('',(#949),#953);
#949 = LINE('',#950,#951);
#950 = CARTESIAN_POINT('',(-0.,0.));
#951 = VECTOR('',#952,1.);
#952 = DIRECTION('',(-1.,0.));
#953 = ( GEOMETRIC_REPRESENTATION_CONTEXT(2) 
PARAMETRIC_REPRESENTATION_CONTEXT() REPRESENTATION_CONTEXT('2D SPACE',''
  ) );
#954 = PCURVE('',#955,#960);
#955 = CYLINDRICAL_SURFACE('',#956,5.925925572713E-02);
#956 = AXIS2_PLACEMENT_3D('',#957,#958,#959);
#957 = CARTESIAN_POINT('',(-0.415343897946,-1.5873015E-02,0.840035357308
    ));
#958 = DIRECTION('',(0.,-1.,0.));
#959 = DIRECTION('',(1.,0.,0.));
#960 = DEFINITIONAL_REPRESENTATION('',(#961),#965);
#961 = LINE('',#962,#963);
#962 = CARTESIAN_POINT('',(0.,0.));
#963 = VECTOR('',#964,1.);
#964 = DIRECTION('',(1.,0.));
#965 = ( GEOMETRIC_REPRESENTATION_CONTEXT(2) 
PARAMETRIC_REPRESENTATION_CONTEXT() REPRESENTATION_CONTEXT('2D SPACE',''
  ) );
#966 = ADVANCED_FACE('',(#967),#955,.T.);
#967 = FACE_BOUND('',#968,.T.);
#968 = EDGE_LOOP('',(#969,#992,#1019,#1020));
#969 = ORIENTED_EDGE('',*,*,#970,.T.);
#970 = EDGE_CURVE('',#883,#971,#973,.T.);
#971 = VERTEX_POINT('',#972);
#972 = CARTESIAN_POINT('',(-0.356084642218,0.,0.840035357308));
#973 = SEAM_CURVE('',#974,(#978,#985),.PCURVE_S1.);
#974 = LINE('',#975,#976);
#975 = CARTESIAN_POINT('',(-0.356084642218,-1.5873015E-02,0.840035357308
    ));
#976 = VECTOR('',#977,1.);
#977 = DIRECTION('',(-0.,1.,-0.));
#978 = PCURVE('',#955,#979);
#979 = DEFINITIONAL_REPRESENTATION('',(#980),#984);
#980 = LINE('',#981,#982);
#981 = CARTESIAN_POINT('',(0.,0.));
#982 = VECTOR('',#983,1.);
#983 = DIRECTION('',(0.,-1.));
#984 = ( GEOMETRIC_REPRESENTATION_CONTEXT(2) 
PARAMETRIC_REPRESENTATION_CONTEXT() REPRESENTATION_CONTEXT('2D SPACE',''
  ) );
#985 = PCURVE('',#955,#986);
#986 = DEFINITIONAL_REPRESENTATION('',(#987),#991);
#987 = LINE('',#988,#989);
#988 = CARTESIAN_POINT('',(6.28318530718,0.));
#989 = VECTOR('',#990,1.);
#990 = DIRECTION('',(0.,-1.));
#991 = ( GEOMETRIC_REPRESENTATION_CONTEXT(2) 
PARAMETRIC_REPRESENTATION_CONTEXT() REPRESENTATION_CONTEXT('2D SPACE',''
  ) );
#992 = ORIENTED_EDGE('',*,*,#993,.T.);
#993 = EDGE_CURVE('',#971,#971,#994,.T.);
#994 = SURFACE_CURVE('',#995,(#1000,#1007),.PCURVE_S1.);
#995 = CIRCLE('',#996,5.925925572713E-02);
#996 = AXIS2_PLACEMENT_3D('',#997,#998,#999);
#997 = CARTESIAN_POINT('',(-0.415343897946,0.,0.840035357308));
#998 = DIRECTION('',(0.,-1.,0.));
#999 = DIRECTION('',(1.,0.,0.));
#1000 = PCURVE('',#955,#1001);
#1001 = DEFINITIONAL_REPRESENTATION('',(#1002),#1006);
#1002 = LINE('',#1003,#1004);
#1003 = CARTESIAN_POINT('',(0.,-1.5873015E-02));
#1004 = VECTOR('',#1005,1.);
#1005 = DIRECTION('',(1.,0.));
#1006 = ( GEOMETRIC_REPRESENTATION_CONTEXT(2) 
PARAMETRIC_REPRESENTATION_CONTEXT() REPRESENTATION_CONTEXT('2D SPACE',''
  ) );
#1007 = PCURVE('',#1008,#1013);
#1008 = PLANE('',#1009);
#1009 = AXIS2_PLACEMENT_3D('',#1010,#1011,#1012);
#1010 = CARTESIAN_POINT('',(-1.5873015E-02,0.,0.4603175));
#1011 = DIRECTION('',(0.,-1.,0.));
#1012 = DIRECTION('',(1.,0.,0.));
#1013 = DEFINITIONAL_REPRESENTATION('',(#1014),#1018);
#1014 = CIRCLE('',#1015,5.925925572713E-02);
#1015 = AXIS2_PLACEMENT_2D('',#1016,#1017);
#1016 = CARTESIAN_POINT('',(-0.399470882946,0.379717857308));
#1017 = DIRECTION('',(1.,0.));
#1018 = ( GEOMETRIC_REPRESENTATION_CONTEXT(2) 
PARAMETRIC_REPRESENTATION_CONTEXT() REPRESENTATION_CONTEXT('2D SPACE',''
  ) );
#1019 = ORIENTED_EDGE('',*,*,#970,.F.);
#1020 = ORIENTED_EDGE('',*,*,#940,.F.);
#1021 = ADVANCED_FACE('',(#1022),#927,.T.);
#1022 = FACE_BOUND('',#1023,.T.);
#1023 = EDGE_LOOP('',(#1024));
#1024 = ORIENTED_EDGE('',*,*,#912,.T.);
#1025 = ADVANCED_FACE('',(#1026),#1008,.F.);
#1026 = FACE_BOUND('',#1027,.F.);
#1027 = EDGE_LOOP('',(#1028));
#1028 = ORIENTED_EDGE('',*,*,#993,.T.);
#1029 = ( GEOMETRIC_REPRESENTATION_CONTEXT(3) 
GLOBAL_UNCERTAINTY_ASSIGNED_CONTEXT((#1033)) 
GLOBAL_UNIT_ASSIGNED_CONTEXT((#1030,#1031,#1032)) REPRESENTATION_CONTEXT
('Context #1','3D Context with UNIT and UNCERTAINTY') );
#1030 = ( LENGTH_UNIT() NAMED_UNIT(*) SI_UNIT(.MILLI.,.METRE.) );
#1031 = ( NAMED_UNIT(*) PLANE_ANGLE_UNIT() SI_UNIT($,.RADIAN.) );
#1032 = ( NAMED_UNIT(*) SI_UNIT($,.STERADIAN.) SOLID_ANGLE_UNIT() );
#1033 = UNCERTAINTY_MEASURE_WITH_UNIT(LENGTH_MEASURE(1.E-07),#1030,
  'distance_accuracy_value','confusion accuracy');
#1034 = CONTEXT_DEPENDENT_SHAPE_REPRESENTATION(#1035,#1037);
#1035 = ( REPRESENTATION_RELATIONSHIP('','',#875,#10) 
REPRESENTATION_RELATIONSHIP_WITH_TRANSFORMATION(#1036) 
SHAPE_REPRESENTATION_RELATIONSHIP() );
#1036 = ITEM_DEFINED_TRANSFORMATION('','',#11,#23);
#1037 = PRODUCT_DEFINITION_SHAPE('Placement','Placement of an item',
  #1038);
#1038 = NEXT_ASSEMBLY_USAGE_OCCURRENCE('45','','',#5,#870,$);
#1039 = CC_DESIGN_SECURITY_CLASSIFICATION(#1040,(#1038));
#1040 = SECURITY_CLASSIFICATION('','',#55);
#1041 = CC_DESIGN_PERSON_AND_ORGANIZATION_ASSIGNMENT(#44,#53,(#1040));
#1042 = CC_DESIGN_DATE_AND_TIME_ASSIGNMENT(#58,#64,(#1040));
#1043 = CC_DESIGN_APPROVAL(#66,(#1040));
#1044 = PRODUCT_RELATED_PRODUCT_CATEGORY('detail',$,(#872));
#1045 = PRODUCT_CATEGORY_RELATIONSHIP('','',#1046,#1044);
#1046 = PRODUCT_CATEGORY('part',$);
#1047 = CC_DESIGN_PERSON_AND_ORGANIZATION_ASSIGNMENT(#44,#47,(#871,#870)
  );
#1048 = CC_DESIGN_PERSON_AND_ORGANIZATION_ASSIGNMENT(#44,#49,(#872));
#1049 = CC_DESIGN_PERSON_AND_ORGANIZATION_ASSIGNMENT(#44,#51,(#871));
#1050 = CC_DESIGN_PERSON_AND_ORGANIZATION_ASSIGNMENT(#44,#53,(#1051));
#1051 = SECURITY_CLASSIFICATION('','',#55);
#1052 = CC_DESIGN_SECURITY_CLASSIFICATION(#1051,(#871));
#1053 = CC_DESIGN_DATE_AND_TIME_ASSIGNMENT(#58,#62,(#870));
#1054 = CC_DESIGN_DATE_AND_TIME_ASSIGNMENT(#58,#64,(#1051));
#1055 = CC_DESIGN_APPROVAL(#66,(#871,#870,#1051));
#1056 = SHAPE_DEFINITION_REPRESENTATION(#1057,#1063);
#1057 = PRODUCT_DEFINITION_SHAPE('','',#1058);
#1058 = PRODUCT_DEFINITION('design','',#1059,#1062);
#1059 = PRODUCT_DEFINITION_FORMATION_WITH_SPECIFIED_SOURCE('','',#1060,
  .NOT_KNOWN.);
#1060 = PRODUCT('Open CASCADE STEP translator 7.7 361.4',
  'Open CASCADE STEP translator 7.7 361.4','',(#1061));
#1061 = MECHANICAL_CONTEXT('',#2,'mechanical');
#1062 = DESIGN_CONTEXT('',#2,'design');
#1063 = ADVANCED_BREP_SHAPE_REPRESENTATION('',(#11,#1064),#1217);
#1064 = MANIFOLD_SOLID_BREP('',#1065);
#1065 = CLOSED_SHELL('',(#1066,#1154,#1209,#1213));
#1066 = ADVANCED_FACE('',(#1067),#1081,.T.);
#1067 = FACE_BOUND('',#1068,.F.);
#1068 = EDGE_LOOP('',(#1069,#1099,#1126,#1127));
#1069 = ORIENTED_EDGE('',*,*,#1070,.T.);
#1070 = EDGE_CURVE('',#1071,#1073,#1075,.T.);
#1071 = VERTEX_POINT('',#1072);
#1072 = CARTESIAN_POINT('',(0.394532671167,-1.5873015E-02,
    8.941804392285E-02));
#1073 = VERTEX_POINT('',#1074);
#1074 = CARTESIAN_POINT('',(0.394532671167,-3.174609E-02,
    8.941804392285E-02));
#1075 = SEAM_CURVE('',#1076,(#1080,#1092),.PCURVE_S1.);
#1076 = LINE('',#1077,#1078);
#1077 = CARTESIAN_POINT('',(0.394532671167,-1.5873015E-02,
    8.941804392285E-02));
#1078 = VECTOR('',#1079,1.);
#1079 = DIRECTION('',(0.,-1.,0.));
#1080 = PCURVE('',#1081,#1086);
#1081 = CYLINDRICAL_SURFACE('',#1082,5.925925572713E-02);
#1082 = AXIS2_PLACEMENT_3D('',#1083,#1084,#1085);
#1083 = CARTESIAN_POINT('',(0.335273415439,-1.5873015E-02,
    8.941804392285E-02));
#1084 = DIRECTION('',(-0.,1.,-0.));
#1085 = DIRECTION('',(1.,0.,0.));
#1086 = DEFINITIONAL_REPRESENTATION('',(#1087),#1091);
#1087 = LINE('',#1088,#1089);
#1088 = CARTESIAN_POINT('',(-0.,0.));
#1089 = VECTOR('',#1090,1.);
#1090 = DIRECTION('',(-0.,-1.));
#1091 = ( GEOMETRIC_REPRESENTATION_CONTEXT(2) 
PARAMETRIC_REPRESENTATION_CONTEXT() REPRESENTATION_CONTEXT('2D SPACE',''
  ) );
#1092 = PCURVE('',#1081,#1093);
#1093 = DEFINITIONAL_REPRESENTATION('',(#1094),#1098);
#1094 = LINE('',#1095,#1096);
#1095 = CARTESIAN_POINT('',(-6.28318530718,0.));
#1096 = VECTOR('',#1097,1.);
#1097 = DIRECTION('',(-0.,-1.));
#1098 = ( GEOMETRIC_REPRESENTATION_CONTEXT(2) 
PARAMETRIC_REPRESENTATION_CONTEXT() REPRESENTATION_CONTEXT('2D SPACE',''
  ) );
#1099 = ORIENTED_EDGE('',*,*,#1100,.T.);
#1100 = EDGE_CURVE('',#1073,#1073,#1101,.T.);
#1101 = SURFACE_CURVE('',#1102,(#1107,#1114),.PCURVE_S1.);
#1102 = CIRCLE('',#1103,5.925925572713E-02);
#1103 = AXIS2_PLACEMENT_3D('',#1104,#1105,#1106);
#1104 = CARTESIAN_POINT('',(0.335273415439,-3.174609E-02,
    8.941804392285E-02));
#1105 = DIRECTION('',(0.,-1.,0.));
#1106 = DIRECTION('',(1.,0.,0.));
#1107 = PCURVE('',#1081,#1108);
#1108 = DEFINITIONAL_REPRESENTATION('',(#1109),#1113);
#1109 = LINE('',#1110,#1111);
#1110 = CARTESIAN_POINT('',(-0.,-1.5873075E-02));
#1111 = VECTOR('',#1112,1.);
#1112 = DIRECTION('',(-1.,0.));
#1113 = ( GEOMETRIC_REPRESENTATION_CONTEXT(2) 
PARAMETRIC_REPRESENTATION_CONTEXT() REPRESENTATION_CONTEXT('2D SPACE',''
  ) );
#1114 = PCURVE('',#1115,#1120);
#1115 = PLANE('',#1116);
#1116 = AXIS2_PLACEMENT_3D('',#1117,#1118,#1119);
#1117 = CARTESIAN_POINT('',(-1.5873015E-02,-3.174609E-02,0.4603175));
#1118 = DIRECTION('',(0.,-1.,0.));
#1119 = DIRECTION('',(1.,0.,0.));
#1120 = DEFINITIONAL_REPRESENTATION('',(#1121),#1125);
#1121 = CIRCLE('',#1122,5.925925572713E-02);
#1122 = AXIS2_PLACEMENT_2D('',#1123,#1124);
#1123 = CARTESIAN_POINT('',(0.351146430439,-0.370899456077));
#1124 = DIRECTION('',(1.,0.));
#1125 = ( GEOMETRIC_REPRESENTATION_CONTEXT(2) 
PARAMETRIC_REPRESENTATION_CONTEXT() REPRESENTATION_CONTEXT('2D SPACE',''
  ) );
#1126 = ORIENTED_EDGE('',*,*,#1070,.F.);
#1127 = ORIENTED_EDGE('',*,*,#1128,.F.);
#1128 = EDGE_CURVE('',#1071,#1071,#1129,.T.);
#1129 = SURFACE_CURVE('',#1130,(#1135,#1142),.PCURVE_S1.);
#1130 = CIRCLE('',#1131,5.925925572713E-02);
#1131 = AXIS2_PLACEMENT_3D('',#1132,#1133,#1134);
#1132 = CARTESIAN_POINT('',(0.335273415439,-1.5873015E-02,
    8.941804392285E-02));
#1133 = DIRECTION('',(0.,-1.,0.));
#1134 = DIRECTION('',(1.,0.,0.));
#1135 = PCURVE('',#1081,#1136);
#1136 = DEFINITIONAL_REPRESENTATION('',(#1137),#1141);
#1137 = LINE('',#1138,#1139);
#1138 = CARTESIAN_POINT('',(-0.,0.));
#1139 = VECTOR('',#1140,1.);
#1140 = DIRECTION('',(-1.,0.));
#1141 = ( GEOMETRIC_REPRESENTATION_CONTEXT(2) 
PARAMETRIC_REPRESENTATION_CONTEXT() REPRESENTATION_CONTEXT('2D SPACE',''
  ) );
#1142 = PCURVE('',#1143,#1148);
#1143 = CYLINDRICAL_SURFACE('',#1144,5.925925572713E-02);
#1144 = AXIS2_PLACEMENT_3D('',#1145,#1146,#1147);
#1145 = CARTESIAN_POINT('',(0.335273415439,-1.5873015E-02,
    8.941804392285E-02));
#1146 = DIRECTION('',(0.,-1.,0.));
#1147 = DIRECTION('',(1.,0.,0.));
#1148 = DEFINITIONAL_REPRESENTATION('',(#1149),#1153);
#1149 = LINE('',#1150,#1151);
#1150 = CARTESIAN_POINT('',(0.,0.));
#1151 = VECTOR('',#1152,1.);
#1152 = DIRECTION('',(1.,0.));
#1153 = ( GEOMETRIC_REPRESENTATION_CONTEXT(2) 
PARAMETRIC_REPRESENTATION_CONTEXT() REPRESENTATION_CONTEXT('2D SPACE',''
  ) );
#1154 = ADVANCED_FACE('',(#1155),#1143,.T.);
#1155 = FACE_BOUND('',#1156,.T.);
#1156 = EDGE_LOOP('',(#1157,#1180,#1207,#1208));
#1157 = ORIENTED_EDGE('',*,*,#1158,.T.);
#1158 = EDGE_CURVE('',#1071,#1159,#1161,.T.);
#1159 = VERTEX_POINT('',#1160);
#1160 = CARTESIAN_POINT('',(0.394532671167,0.,8.941804392285E-02));
#1161 = SEAM_CURVE('',#1162,(#1166,#1173),.PCURVE_S1.);
#1162 = LINE('',#1163,#1164);
#1163 = CARTESIAN_POINT('',(0.394532671167,-1.5873015E-02,
    8.941804392285E-02));
#1164 = VECTOR('',#1165,1.);
#1165 = DIRECTION('',(-0.,1.,-0.));
#1166 = PCURVE('',#1143,#1167);
#1167 = DEFINITIONAL_REPRESENTATION('',(#1168),#1172);
#1168 = LINE('',#1169,#1170);
#1169 = CARTESIAN_POINT('',(0.,0.));
#1170 = VECTOR('',#1171,1.);
#1171 = DIRECTION('',(0.,-1.));
#1172 = ( GEOMETRIC_REPRESENTATION_CONTEXT(2) 
PARAMETRIC_REPRESENTATION_CONTEXT() REPRESENTATION_CONTEXT('2D SPACE',''
  ) );
#1173 = PCURVE('',#1143,#1174);
#1174 = DEFINITIONAL_REPRESENTATION('',(#1175),#1179);
#1175 = LINE('',#1176,#1177);
#1176 = CARTESIAN_POINT('',(6.28318530718,0.));
#1177 = VECTOR('',#1178,1.);
#1178 = DIRECTION('',(0.,-1.));
#1179 = ( GEOMETRIC_REPRESENTATION_CONTEXT(2) 
PARAMETRIC_REPRESENTATION_CONTEXT() REPRESENTATION_CONTEXT('2D SPACE',''
  ) );
#1180 = ORIENTED_EDGE('',*,*,#1181,.T.);
#1181 = EDGE_CURVE('',#1159,#1159,#1182,.T.);
#1182 = SURFACE_CURVE('',#1183,(#1188,#1195),.PCURVE_S1.);
#1183 = CIRCLE('',#1184,5.925925572713E-02);
#1184 = AXIS2_PLACEMENT_3D('',#1185,#1186,#1187);
#1185 = CARTESIAN_POINT('',(0.335273415439,0.,8.941804392285E-02));
#1186 = DIRECTION('',(0.,-1.,0.));
#1187 = DIRECTION('',(1.,0.,0.));
#1188 = PCURVE('',#1143,#1189);
#1189 = DEFINITIONAL_REPRESENTATION('',(#1190),#1194);
#1190 = LINE('',#1191,#1192);
#1191 = CARTESIAN_POINT('',(0.,-1.5873015E-02));
#1192 = VECTOR('',#1193,1.);
#1193 = DIRECTION('',(1.,0.));
#1194 = ( GEOMETRIC_REPRESENTATION_CONTEXT(2) 
PARAMETRIC_REPRESENTATION_CONTEXT() REPRESENTATION_CONTEXT('2D SPACE',''
  ) );
#1195 = PCURVE('',#1196,#1201);
#1196 = PLANE('',#1197);
#1197 = AXIS2_PLACEMENT_3D('',#1198,#1199,#1200);
#1198 = CARTESIAN_POINT('',(-1.5873015E-02,0.,0.4603175));
#1199 = DIRECTION('',(0.,-1.,0.));
#1200 = DIRECTION('',(1.,0.,0.));
#1201 = DEFINITIONAL_REPRESENTATION('',(#1202),#1206);
#1202 = CIRCLE('',#1203,5.925925572713E-02);
#1203 = AXIS2_PLACEMENT_2D('',#1204,#1205);
#1204 = CARTESIAN_POINT('',(0.351146430439,-0.370899456077));
#1205 = DIRECTION('',(1.,0.));
#1206 = ( GEOMETRIC_REPRESENTATION_CONTEXT(2) 
PARAMETRIC_REPRESENTATION_CONTEXT() REPRESENTATION_CONTEXT('2D SPACE',''
  ) );
#1207 = ORIENTED_EDGE('',*,*,#1158,.F.);
#1208 = ORIENTED_EDGE('',*,*,#1128,.F.);
#1209 = ADVANCED_FACE('',(#1210),#1115,.T.);
#1210 = FACE_BOUND('',#1211,.T.);
#1211 = EDGE_LOOP('',(#1212));
#1212 = ORIENTED_EDGE('',*,*,#1100,.T.);
#1213 = ADVANCED_FACE('',(#1214),#1196,.F.);
#1214 = FACE_BOUND('',#1215,.F.);
#1215 = EDGE_LOOP('',(#1216));
#1216 = ORIENTED_EDGE('',*,*,#1181,.T.);
#1217 = ( GEOMETRIC_REPRESENTATION_CONTEXT(3) 
GLOBAL_UNCERTAINTY_ASSIGNED_CONTEXT((#1221)) 
GLOBAL_UNIT_ASSIGNED_CONTEXT((#1218,#1219,#1220)) REPRESENTATION_CONTEXT
('Context #1','3D Context with UNIT and UNCERTAINTY') );
#1218 = ( LENGTH_UNIT() NAMED_UNIT(*) SI_UNIT(.MILLI.,.METRE.) );
#1219 = ( NAMED_UNIT(*) PLANE_ANGLE_UNIT() SI_UNIT($,.RADIAN.) );
#1220 = ( NAMED_UNIT(*) SI_UNIT($,.STERADIAN.) SOLID_ANGLE_UNIT() );
#1221 = UNCERTAINTY_MEASURE_WITH_UNIT(LENGTH_MEASURE(1.E-07),#1218,
  'distance_accuracy_value','confusion accuracy');
#1222 = CONTEXT_DEPENDENT_SHAPE_REPRESENTATION(#1223,#1225);
#1223 = ( REPRESENTATION_RELATIONSHIP('','',#1063,#10) 
REPRESENTATION_RELATIONSHIP_WITH_TRANSFORMATION(#1224) 
SHAPE_REPRESENTATION_RELATIONSHIP() );
#1224 = ITEM_DEFINED_TRANSFORMATION('','',#11,#27);
#1225 = PRODUCT_DEFINITION_SHAPE('Placement','Placement of an item',
  #1226);
#1226 = NEXT_ASSEMBLY_USAGE_OCCURRENCE('46','','',#5,#1058,$);
#1227 = CC_DESIGN_SECURITY_CLASSIFICATION(#1228,(#1226));
#1228 = SECURITY_CLASSIFICATION('','',#55);
#1229 = CC_DESIGN_PERSON_AND_ORGANIZATION_ASSIGNMENT(#44,#53,(#1228));
#1230 = CC_DESIGN_DATE_AND_TIME_ASSIGNMENT(#58,#64,(#1228));
#1231 = CC_DESIGN_APPROVAL(#66,(#1228));
#1232 = PRODUCT_RELATED_PRODUCT_CATEGORY('detail',$,(#1060));
#1233 = PRODUCT_CATEGORY_RELATIONSHIP('','',#1234,#1232);
#1234 = PRODUCT_CATEGORY('part',$);
#1235 = CC_DESIGN_PERSON_AND_ORGANIZATION_ASSIGNMENT(#44,#47,(#1059,
    #1058));
#1236 = CC_DESIGN_PERSON_AND_ORGANIZATION_ASSIGNMENT(#44,#49,(#1060));
#1237 = CC_DESIGN_PERSON_AND_ORGANIZATION_ASSIGNMENT(#44,#51,(#1059));
#1238 = CC_DESIGN_PERSON_AND_ORGANIZATION_ASSIGNMENT(#44,#53,(#1239));
#1239 = SECURITY_CLASSIFICATION('','',#55);
#1240 = CC_DESIGN_SECURITY_CLASSIFICATION(#1239,(#1059));
#1241 = CC_DESIGN_DATE_AND_TIME_ASSIGNMENT(#58,#62,(#1058));
#1242 = CC_DESIGN_DATE_AND_TIME_ASSIGNMENT(#58,#64,(#1239));
#1243 = CC_DESIGN_APPROVAL(#66,(#1059,#1058,#1239));
#1244 = SHAPE_DEFINITION_REPRESENTATION(#1245,#1251);
#1245 = PRODUCT_DEFINITION_SHAPE('','',#1246);
#1246 = PRODUCT_DEFINITION('design','',#1247,#1250);
#1247 = PRODUCT_DEFINITION_FORMATION_WITH_SPECIFIED_SOURCE('','',#1248,
  .NOT_KNOWN.);
#1248 = PRODUCT('Open CASCADE STEP translator 7.7 361.5',
  'Open CASCADE STEP translator 7.7 361.5','',(#1249));
#1249 = MECHANICAL_CONTEXT('',#2,'mechanical');
#1250 = DESIGN_CONTEXT('',#2,'design');
#1251 = ADVANCED_BREP_SHAPE_REPRESENTATION('',(#11,#1252),#1405);
#1252 = MANIFOLD_SOLID_BREP('',#1253);
#1253 = CLOSED_SHELL('',(#1254,#1342,#1397,#1401));
#1254 = ADVANCED_FACE('',(#1255),#1269,.T.);
#1255 = FACE_BOUND('',#1256,.F.);
#1256 = EDGE_LOOP('',(#1257,#1287,#1314,#1315));
#1257 = ORIENTED_EDGE('',*,*,#1258,.T.);
#1258 = EDGE_CURVE('',#1259,#1261,#1263,.T.);
#1259 = VERTEX_POINT('',#1260);
#1260 = CARTESIAN_POINT('',(0.394532671167,-1.5873015E-02,0.840035357308
    ));
#1261 = VERTEX_POINT('',#1262);
#1262 = CARTESIAN_POINT('',(0.394532671167,-3.174609E-02,0.840035357308)
  );
#1263 = SEAM_CURVE('',#1264,(#1268,#1280),.PCURVE_S1.);
#1264 = LINE('',#1265,#1266);
#1265 = CARTESIAN_POINT('',(0.394532671167,-1.5873015E-02,0.840035357308
    ));
#1266 = VECTOR('',#1267,1.);
#1267 = DIRECTION('',(0.,-1.,0.));
#1268 = PCURVE('',#1269,#1274);
#1269 = CYLINDRICAL_SURFACE('',#1270,5.925925572713E-02);
#1270 = AXIS2_PLACEMENT_3D('',#1271,#1272,#1273);
#1271 = CARTESIAN_POINT('',(0.335273415439,-1.5873015E-02,0.840035357308
    ));
#1272 = DIRECTION('',(-0.,1.,-0.));
#1273 = DIRECTION('',(1.,0.,0.));
#1274 = DEFINITIONAL_REPRESENTATION('',(#1275),#1279);
#1275 = LINE('',#1276,#1277);
#1276 = CARTESIAN_POINT('',(-0.,0.));
#1277 = VECTOR('',#1278,1.);
#1278 = DIRECTION('',(-0.,-1.));
#1279 = ( GEOMETRIC_REPRESENTATION_CONTEXT(2) 
PARAMETRIC_REPRESENTATION_CONTEXT() REPRESENTATION_CONTEXT('2D SPACE',''
  ) );
#1280 = PCURVE('',#1269,#1281);
#1281 = DEFINITIONAL_REPRESENTATION('',(#1282),#1286);
#1282 = LINE('',#1283,#1284);
#1283 = CARTESIAN_POINT('',(-6.28318530718,0.));
#1284 = VECTOR('',#1285,1.);
#1285 = DIRECTION('',(-0.,-1.));
#1286 = ( GEOMETRIC_REPRESENTATION_CONTEXT(2) 
PARAMETRIC_REPRESENTATION_CONTEXT() REPRESENTATION_CONTEXT('2D SPACE',''
  ) );
#1287 = ORIENTED_EDGE('',*,*,#1288,.T.);
#1288 = EDGE_CURVE('',#1261,#1261,#1289,.T.);
#1289 = SURFACE_CURVE('',#1290,(#1295,#1302),.PCURVE_S1.);
#1290 = CIRCLE('',#1291,5.925925572713E-02);
#1291 = AXIS2_PLACEMENT_3D('',#1292,#1293,#1294);
#1292 = CARTESIAN_POINT('',(0.335273415439,-3.174609E-02,0.840035357308)
  );
#1293 = DIRECTION('',(0.,-1.,0.));
#1294 = DIRECTION('',(1.,0.,0.));
#1295 = PCURVE('',#1269,#1296);
#1296 = DEFINITIONAL_REPRESENTATION('',(#1297),#1301);
#1297 = LINE('',#1298,#1299);
#1298 = CARTESIAN_POINT('',(-0.,-1.5873075E-02));
#1299 = VECTOR('',#1300,1.);
#1300 = DIRECTION('',(-1.,0.));
#1301 = ( GEOMETRIC_REPRESENTATION_CONTEXT(2) 
PARAMETRIC_REPRESENTATION_CONTEXT() REPRESENTATION_CONTEXT('2D SPACE',''
  ) );
#1302 = PCURVE('',#1303,#1308);
#1303 = PLANE('',#1304);
#1304 = AXIS2_PLACEMENT_3D('',#1305,#1306,#1307);
#1305 = CARTESIAN_POINT('',(-1.5873015E-02,-3.174609E-02,0.4603175));
#1306 = DIRECTION('',(0.,-1.,0.));
#1307 = DIRECTION('',(1.,0.,0.));
#1308 = DEFINITIONAL_REPRESENTATION('',(#1309),#1313);
#1309 = CIRCLE('',#1310,5.925925572713E-02);
#1310 = AXIS2_PLACEMENT_2D('',#1311,#1312);
#1311 = CARTESIAN_POINT('',(0.351146430439,0.379717857308));
#1312 = DIRECTION('',(1.,0.));
#1313 = ( GEOMETRIC_REPRESENTATION_CONTEXT(2) 
PARAMETRIC_REPRESENTATION_CONTEXT() REPRESENTATION_CONTEXT('2D SPACE',''
  ) );
#1314 = ORIENTED_EDGE('',*,*,#1258,.F.);
#1315 = ORIENTED_EDGE('',*,*,#1316,.F.);
#1316 = EDGE_CURVE('',#1259,#1259,#1317,.T.);
#1317 = SURFACE_CURVE('',#1318,(#1323,#1330),.PCURVE_S1.);
#1318 = CIRCLE('',#1319,5.925925572713E-02);
#1319 = AXIS2_PLACEMENT_3D('',#1320,#1321,#1322);
#1320 = CARTESIAN_POINT('',(0.335273415439,-1.5873015E-02,0.840035357308
    ));
#1321 = DIRECTION('',(0.,-1.,0.));
#1322 = DIRECTION('',(1.,0.,0.));
#1323 = PCURVE('',#1269,#1324);
#1324 = DEFINITIONAL_REPRESENTATION('',(#1325),#1329);
#1325 = LINE('',#1326,#1327);
#1326 = CARTESIAN_POINT('',(-0.,0.));
#1327 = VECTOR('',#1328,1.);
#1328 = DIRECTION('',(-1.,0.));
#1329 = ( GEOMETRIC_REPRESENTATION_CONTEXT(2) 
PARAMETRIC_REPRESENTATION_CONTEXT() REPRESENTATION_CONTEXT('2D SPACE',''
  ) );
#1330 = PCURVE('',#1331,#1336);
#1331 = CYLINDRICAL_SURFACE('',#1332,5.925925572713E-02);
#1332 = AXIS2_PLACEMENT_3D('',#1333,#1334,#1335);
#1333 = CARTESIAN_POINT('',(0.335273415439,-1.5873015E-02,0.840035357308
    ));
#1334 = DIRECTION('',(0.,-1.,0.));
#1335 = DIRECTION('',(1.,0.,0.));
#1336 = DEFINITIONAL_REPRESENTATION('',(#1337),#1341);
#1337 = LINE('',#1338,#1339);
#1338 = CARTESIAN_POINT('',(0.,0.));
#1339 = VECTOR('',#1340,1.);
#1340 = DIRECTION('',(1.,0.));
#1341 = ( GEOMETRIC_REPRESENTATION_CONTEXT(2) 
PARAMETRIC_REPRESENTATION_CONTEXT() REPRESENTATION_CONTEXT('2D SPACE',''
  ) );
#1342 = ADVANCED_FACE('',(#1343),#1331,.T.);
#1343 = FACE_BOUND('',#1344,.T.);
#1344 = EDGE_LOOP('',(#1345,#1368,#1395,#1396));
#1345 = ORIENTED_EDGE('',*,*,#1346,.T.);
#1346 = EDGE_CURVE('',#1259,#1347,#1349,.T.);
#1347 = VERTEX_POINT('',#1348);
#1348 = CARTESIAN_POINT('',(0.394532671167,0.,0.840035357308));
#1349 = SEAM_CURVE('',#1350,(#1354,#1361),.PCURVE_S1.);
#1350 = LINE('',#1351,#1352);
#1351 = CARTESIAN_POINT('',(0.394532671167,-1.5873015E-02,0.840035357308
    ));
#1352 = VECTOR('',#1353,1.);
#1353 = DIRECTION('',(-0.,1.,-0.));
#1354 = PCURVE('',#1331,#1355);
#1355 = DEFINITIONAL_REPRESENTATION('',(#1356),#1360);
#1356 = LINE('',#1357,#1358);
#1357 = CARTESIAN_POINT('',(0.,0.));
#1358 = VECTOR('',#1359,1.);
#1359 = DIRECTION('',(0.,-1.));
#1360 = ( GEOMETRIC_REPRESENTATION_CONTEXT(2) 
PARAMETRIC_REPRESENTATION_CONTEXT() REPRESENTATION_CONTEXT('2D SPACE',''
  ) );
#1361 = PCURVE('',#1331,#1362);
#1362 = DEFINITIONAL_REPRESENTATION('',(#1363),#1367);
#1363 = LINE('',#1364,#1365);
#1364 = CARTESIAN_POINT('',(6.28318530718,0.));
#1365 = VECTOR('',#1366,1.);
#1366 = DIRECTION('',(0.,-1.));
#1367 = ( GEOMETRIC_REPRESENTATION_CONTEXT(2) 
PARAMETRIC_REPRESENTATION_CONTEXT() REPRESENTATION_CONTEXT('2D SPACE',''
  ) );
#1368 = ORIENTED_EDGE('',*,*,#1369,.T.);
#1369 = EDGE_CURVE('',#1347,#1347,#1370,.T.);
#1370 = SURFACE_CURVE('',#1371,(#1376,#1383),.PCURVE_S1.);
#1371 = CIRCLE('',#1372,5.925925572713E-02);
#1372 = AXIS2_PLACEMENT_3D('',#1373,#1374,#1375);
#1373 = CARTESIAN_POINT('',(0.335273415439,0.,0.840035357308));
#1374 = DIRECTION('',(0.,-1.,0.));
#1375 = DIRECTION('',(1.,0.,0.));
#1376 = PCURVE('',#1331,#1377);
#1377 = DEFINITIONAL_REPRESENTATION('',(#1378),#1382);
#1378 = LINE('',#1379,#1380);
#1379 = CARTESIAN_POINT('',(0.,-1.5873015E-02));
#1380 = VECTOR('',#1381,1.);
#1381 = DIRECTION('',(1.,0.));
#1382 = ( GEOMETRIC_REPRESENTATION_CONTEXT(2) 
PARAMETRIC_REPRESENTATION_CONTEXT() REPRESENTATION_CONTEXT('2D SPACE',''
  ) );
#1383 = PCURVE('',#1384,#1389);
#1384 = PLANE('',#1385);
#1385 = AXIS2_PLACEMENT_3D('',#1386,#1387,#1388);
#1386 = CARTESIAN_POINT('',(-1.5873015E-02,0.,0.4603175));
#1387 = DIRECTION('',(0.,-1.,0.));
#1388 = DIRECTION('',(1.,0.,0.));
#1389 = DEFINITIONAL_REPRESENTATION('',(#1390),#1394);
#1390 = CIRCLE('',#1391,5.925925572713E-02);
#1391 = AXIS2_PLACEMENT_2D('',#1392,#1393);
#1392 = CARTESIAN_POINT('',(0.351146430439,0.379717857308));
#1393 = DIRECTION('',(1.,0.));
#1394 = ( GEOMETRIC_REPRESENTATION_CONTEXT(2) 
PARAMETRIC_REPRESENTATION_CONTEXT() REPRESENTATION_CONTEXT('2D SPACE',''
  ) );
#1395 = ORIENTED_EDGE('',*,*,#1346,.F.);
#1396 = ORIENTED_EDGE('',*,*,#1316,.F.);
#1397 = ADVANCED_FACE('',(#1398),#1303,.T.);
#1398 = FACE_BOUND('',#1399,.T.);
#1399 = EDGE_LOOP('',(#1400));
#1400 = ORIENTED_EDGE('',*,*,#1288,.T.);
#1401 = ADVANCED_FACE('',(#1402),#1384,.F.);
#1402 = FACE_BOUND('',#1403,.F.);
#1403 = EDGE_LOOP('',(#1404));
#1404 = ORIENTED_EDGE('',*,*,#1369,.T.);
#1405 = ( GEOMETRIC_REPRESENTATION_CONTEXT(3) 
GLOBAL_UNCERTAINTY_ASSIGNED_CONTEXT((#1409)) 
GLOBAL_UNIT_ASSIGNED_CONTEXT((#1406,#1407,#1408)) REPRESENTATION_CONTEXT
('Context #1','3D Context with UNIT and UNCERTAINTY') );
#1406 = ( LENGTH_UNIT() NAMED_UNIT(*) SI_UNIT(.MILLI.,.METRE.) );
#1407 = ( NAMED_UNIT(*) PLANE_ANGLE_UNIT() SI_UNIT($,.RADIAN.) );
#1408 = ( NAMED_UNIT(*) SI_UNIT($,.STERADIAN.) SOLID_ANGLE_UNIT() );
#1409 = UNCERTAINTY_MEASURE_WITH_UNIT(LENGTH_MEASURE(1.E-07),#1406,
  'distance_accuracy_value','confusion accuracy');
#1410 = CONTEXT_DEPENDENT_SHAPE_REPRESENTATION(#1411,#1413);
#1411 = ( REPRESENTATION_RELATIONSHIP('','',#1251,#10) 
REPRESENTATION_RELATIONSHIP_WITH_TRANSFORMATION(#1412) 
SHAPE_REPRESENTATION_RELATIONSHIP() );
#1412 = ITEM_DEFINED_TRANSFORMATION('','',#11,#31);
#1413 = PRODUCT_DEFINITION_SHAPE('Placement','Placement of an item',
  #1414);
#1414 = NEXT_ASSEMBLY_USAGE_OCCURRENCE('47','','',#5,#1246,$);
#1415 = CC_DESIGN_SECURITY_CLASSIFICATION(#1416,(#1414));
#1416 = SECURITY_CLASSIFICATION('','',#55);
#1417 = CC_DESIGN_PERSON_AND_ORGANIZATION_ASSIGNMENT(#44,#53,(#1416));
#1418 = CC_DESIGN_DATE_AND_TIME_ASSIGNMENT(#58,#64,(#1416));
#1419 = CC_DESIGN_APPROVAL(#66,(#1416));
#1420 = PRODUCT_RELATED_PRODUCT_CATEGORY('detail',$,(#1248));
#1421 = PRODUCT_CATEGORY_RELATIONSHIP('','',#1422,#1420);
#1422 = PRODUCT_CATEGORY('part',$);
#1423 = CC_DESIGN_PERSON_AND_ORGANIZATION_ASSIGNMENT(#44,#47,(#1247,
    #1246));
#1424 = CC_DESIGN_PERSON_AND_ORGANIZATION_ASSIGNMENT(#44,#49,(#1248));
#1425 = CC_DESIGN_PERSON_AND_ORGANIZATION_ASSIGNMENT(#44,#51,(#1247));
#1426 = CC_DESIGN_PERSON_AND_ORGANIZATION_ASSIGNMENT(#44,#53,(#1427));
#1427 = SECURITY_CLASSIFICATION('','',#55);
#1428 = CC_DESIGN_SECURITY_CLASSIFICATION(#1427,(#1247));
#1429 = CC_DESIGN_DATE_AND_TIME_ASSIGNMENT(#58,#62,(#1246));
#1430 = CC_DESIGN_DATE_AND_TIME_ASSIGNMENT(#58,#64,(#1427));
#1431 = CC_DESIGN_APPROVAL(#66,(#1247,#1246,#1427));
ENDSEC;
END-ISO-10303-21;
